<svg width="104" height="85" viewBox="0 0 104 85" fill="none" xmlns="http://www.w3.org/2000/svg">
<g clip-path="url(#clip0)">
<path d="M26.7495 81.4473C26.2886 83.0064 25.3911 83.7656 24.0064 83.7656C23.1615 83.7656 22.4823 83.4664 21.9304 82.8538C21.3786 82.2411 21.0996 81.3089 21.0996 80.0815C21.0996 78.9884 21.3806 78.0786 21.9324 77.3764C22.4782 76.6843 23.1979 76.3485 24.1378 76.3485C25.3284 76.3485 26.133 76.9978 26.5959 78.3351L26.6767 78.5691L28.0028 78.2007L27.9057 77.932C27.5581 76.9693 27.0527 76.2508 26.4079 75.7948C25.761 75.3389 24.9807 75.1089 24.0832 75.1089C22.7511 75.1089 21.6717 75.5831 20.8732 76.5154C20.0849 77.4374 19.6866 78.6322 19.6866 80.0672C19.6866 80.7715 19.7978 81.4534 20.0141 82.0945C20.2324 82.7398 20.5316 83.2832 20.9015 83.7086C21.2755 84.1381 21.7323 84.4658 22.2599 84.6816C22.7814 84.8953 23.3838 85.0032 24.0509 85.0032C26.0622 85.0032 27.4024 83.9285 28.0331 81.8116L28.1099 81.5511L26.8243 81.201L26.7495 81.4473Z" fill="#6D86A4"/>
<path d="M36.2583 75.2605H34.8857V84.8433H40.7883V83.5753H36.2583V75.2605Z" fill="#6D86A4"/>
<path d="M53.8789 75.7204C53.222 75.3133 52.4235 75.1057 51.5037 75.1057C50.1352 75.1057 49.0396 75.5678 48.2452 76.4796C47.4589 77.3813 47.0607 78.5843 47.0607 80.0559C47.0607 81.0574 47.2466 81.9387 47.6125 82.6735C47.9824 83.4164 48.5019 83.9965 49.1549 84.3975C49.8078 84.7985 50.5961 85.002 51.5037 85.002C52.8844 85.002 53.9861 84.542 54.7764 83.6322C55.5587 82.7325 55.9549 81.5316 55.9549 80.058C55.9549 79.0626 55.773 78.1874 55.4152 77.4546C55.0534 76.7096 54.5359 76.1275 53.8789 75.7204ZM53.0845 83.3248C52.6499 83.6159 52.1183 83.7645 51.5017 83.7645C50.5618 83.7645 49.8421 83.4348 49.3004 82.7549C48.7526 82.0669 48.4736 81.1591 48.4736 80.0559C48.4736 78.9405 48.7465 78.0286 49.2863 77.3447C49.8199 76.6689 50.5436 76.3412 51.4997 76.3412C52.4518 76.3412 53.1755 76.6689 53.7152 77.3406C54.261 78.0205 54.5379 78.9344 54.5379 80.0539C54.5379 80.8111 54.4025 81.4807 54.1377 82.0445C53.8789 82.6002 53.5231 83.0297 53.0845 83.3248Z" fill="#6D86A4"/>
<path d="M68.2796 81.3363C68.2796 82.9911 67.5478 83.7625 65.9772 83.7625C64.3903 83.7625 63.6505 82.987 63.6505 81.322V75.2605H62.2598V81.2569C62.2598 83.7055 63.5515 85.0001 65.9954 85.0001C68.3988 85.0001 69.6703 83.7035 69.6703 81.2528V75.2625H68.2796V81.3363Z" fill="#6D86A4"/>
<path d="M83.9091 77.6888C83.6322 76.956 83.1794 76.3637 82.5629 75.9241C81.9443 75.4844 81.1661 75.2605 80.2504 75.2605H76.533V84.8433H80.2504C81.5279 84.8433 82.5386 84.4057 83.2542 83.5447C83.9576 82.696 84.3154 81.5032 84.3154 79.999C84.3154 79.1787 84.178 78.4012 83.9091 77.6888ZM77.9116 76.5489H79.7652C81.8756 76.5489 82.9004 77.6582 82.9004 79.9379C82.9004 80.6565 82.8176 81.2712 82.6558 81.7658C82.4982 82.2441 82.2677 82.6268 81.9665 82.9056C81.6674 83.1845 81.352 83.3616 81.0326 83.4369C80.687 83.5162 80.2605 83.557 79.7652 83.557H77.9116V76.5489Z" fill="#6D86A4"/>
<path opacity="0.25" d="M102.767 41.1872C102.767 40.2956 102.047 39.571 101.162 39.571C101.113 39.571 101.067 39.5751 101.02 39.5792C100.602 37.5173 99.8358 35.5469 98.7523 33.7497C98.999 33.5522 99.1587 33.2469 99.1587 32.9049C99.1587 32.3106 98.6776 31.8282 98.0893 31.8282C97.8892 31.8282 97.7032 31.8852 97.5435 31.9809C97.2201 31.5636 96.8805 31.1565 96.5207 30.7657C95.4958 29.6543 94.3497 28.6875 93.1146 27.8713C93.153 27.7817 93.1732 27.684 93.1732 27.5823C93.1732 27.1752 92.8458 26.8434 92.4415 26.8434C92.2131 26.8434 92.0089 26.9513 91.8755 27.1182C89.8783 26.019 87.6831 25.3046 85.3928 25.0176C85.3867 24.6003 85.0653 24.2625 84.657 24.2279C84.5579 22.4753 84.2386 20.7656 83.7069 19.1291C84.0546 18.9642 84.2992 18.608 84.2992 18.1948C84.2992 17.6249 83.8383 17.1608 83.2743 17.1608C83.1692 17.1608 83.0682 17.1771 82.9731 17.2056C82.2616 15.5996 81.3378 14.0853 80.2179 12.7032C80.503 12.4121 80.6788 12.0132 80.6788 11.5715C80.6788 10.68 79.9592 9.95535 79.0738 9.95535C78.6615 9.95535 78.2875 10.1141 78.0025 10.3706C76.7067 9.20835 75.2857 8.23134 73.7696 7.45583C73.7939 7.37849 73.8101 7.2991 73.8101 7.21565C73.8101 6.76989 73.4502 6.40758 73.0076 6.40758C72.7205 6.40758 72.4698 6.56024 72.3284 6.78821C70.5252 6.0412 68.613 5.56491 66.6401 5.37765C66.632 4.64082 66.0377 4.04443 65.3019 4.04443C64.5924 4.04443 64.0143 4.60011 63.9678 5.30234C61.3339 5.40411 58.801 6.02695 56.4865 7.08538C56.343 6.86148 56.0964 6.7129 55.8134 6.7129C55.3707 6.7129 55.0109 7.0752 55.0109 7.52097C55.0109 7.62274 55.0311 7.7184 55.0654 7.80796C53.424 8.72391 51.9161 9.8719 50.588 11.2133C50.404 11.0667 50.1736 10.9771 49.9209 10.9771C49.3307 10.9771 48.8516 11.4595 48.8516 12.0539C48.8516 12.3511 48.9709 12.6197 49.1649 12.8151C47.9339 14.358 46.9171 16.0983 46.1712 17.9994C46.1085 17.9831 46.0418 17.9709 45.9731 17.9709C45.7164 17.9709 45.49 18.0951 45.3424 18.2844C43.4079 17.173 41.2329 16.5787 38.9931 16.5563C38.9527 15.9986 38.4898 15.5589 37.9278 15.5589C37.3376 15.5589 36.8565 16.0413 36.8565 16.6357C36.8565 16.6601 36.8585 16.6825 36.8605 16.7069C33.792 17.1812 31.0712 18.7342 29.0882 20.963C28.9628 20.8816 28.8133 20.8327 28.6536 20.8327C28.2109 20.8327 27.8511 21.1951 27.8511 21.6408C27.8511 21.8708 27.9481 22.0764 28.0997 22.223C26.7231 24.2095 25.8761 26.591 25.7629 29.1638C25.4031 29.1821 25.108 29.4366 25.0251 29.7765C24.3661 29.693 23.7072 29.6503 23.0603 29.6503C21.2875 29.6503 19.5835 29.9475 17.9886 30.4909C17.8167 30.1286 17.4488 29.8762 17.0223 29.8762C16.4321 29.8762 15.953 30.3586 15.953 30.953C15.953 31.0792 15.9752 31.1992 16.0157 31.3132C13.5232 32.5589 11.3987 34.4397 9.85639 36.7479C9.73713 36.6766 9.59967 36.6339 9.45211 36.6339C9.00942 36.6339 8.64961 36.9962 8.64961 37.4419C8.64961 37.733 8.80323 37.9854 9.03368 38.1279C8.16649 39.7562 7.57421 41.5535 7.31143 43.4567C7.29525 43.4567 7.27706 43.4546 7.26089 43.4546C6.37551 43.4546 5.65588 44.1793 5.65588 45.0708C5.65588 45.9399 6.33912 46.6462 7.19418 46.6828C7.29525 48.3071 7.6389 49.8683 8.18872 51.3257C7.94211 51.4641 7.77231 51.7267 7.77231 52.0299C7.77231 52.4757 8.13212 52.838 8.57481 52.838C8.66376 52.838 8.74663 52.8197 8.82749 52.7932C9.68457 54.5213 10.8408 56.0723 12.2316 57.375C12.1062 57.5521 12.0335 57.7658 12.0335 57.9979C12.0335 58.5922 12.5125 59.0746 13.1028 59.0746C13.4121 59.0746 13.691 58.9403 13.8851 58.7286C16.3391 60.4811 19.3065 61.5517 22.5125 61.6617C22.559 62.1542 22.9653 62.543 23.4666 62.543C23.9639 62.543 24.3682 62.1624 24.4207 61.6759H32.6075C32.658 62.0728 32.9915 62.3802 33.3999 62.3802C33.8062 62.3802 34.1397 62.0728 34.1923 61.6759H42.5832C42.6357 62.2214 43.0926 62.6488 43.6485 62.6488C44.2043 62.6488 44.6612 62.2214 44.7137 61.6759H53.0521C53.1026 62.0728 53.4362 62.3802 53.8445 62.3802C54.2528 62.3802 54.5843 62.0728 54.6369 61.6759H62.3062C62.3587 62.197 62.7953 62.6041 63.327 62.6041C63.8586 62.6041 64.2952 62.197 64.3478 61.6759H73.4947C73.5452 61.9995 73.8202 62.2479 74.1557 62.2479C74.4893 62.2479 74.7662 61.9995 74.8167 61.6759H83.1288C83.8868 61.6759 84.6327 61.6291 85.3665 61.5375C85.4575 61.8428 85.7344 62.0667 86.0659 62.0667C86.4702 62.0667 86.7997 61.737 86.7997 61.3299C86.7997 61.3217 86.7977 61.3116 86.7977 61.3034C89.4862 60.7498 91.9624 59.5998 94.0829 57.9958C94.2749 58.1851 94.5377 58.3011 94.8288 58.3011C95.419 58.3011 95.8981 57.8187 95.8981 57.2244C95.8981 56.9964 95.8273 56.7847 95.7061 56.6117C97.2242 55.1605 98.4956 53.4487 99.4497 51.5496C99.5912 51.6005 99.7408 51.629 99.8985 51.629C100.636 51.629 101.237 51.0244 101.237 50.2815C101.237 49.7462 100.925 49.2862 100.477 49.0684C101.079 47.2446 101.406 45.2947 101.406 43.2694C101.406 43.1045 101.398 42.9417 101.394 42.7789C102.162 42.6771 102.767 42.0034 102.767 41.1872ZM93.9171 56.6463L86.6663 52.8502C86.6905 52.777 86.7067 52.7016 86.7067 52.6202C86.7067 52.4431 86.642 52.2803 86.5369 52.1541L90.9618 46.9312C91.174 47.0737 91.4287 47.1591 91.7037 47.1591C91.7906 47.1591 91.8755 47.151 91.9563 47.1347L94.4326 56.227C94.2203 56.3084 94.0384 56.457 93.9171 56.6463ZM13.2948 56.9476L13.8507 51.0957C14.1277 51.0855 14.3682 50.9349 14.5057 50.711L19.9574 53.1596C19.9392 53.2248 19.9271 53.2899 19.9271 53.3611C19.9271 53.4649 19.9493 53.5626 19.9857 53.6522L13.9437 57.3587C13.7881 57.1491 13.5596 56.9985 13.2948 56.9476ZM8.69408 44.3747L16.1814 40.1267C16.2562 40.2224 16.3512 40.3017 16.4644 40.3526L13.9336 49.4958C13.8972 49.4897 13.8588 49.4836 13.8204 49.4836C13.6021 49.4836 13.404 49.5711 13.2605 49.7136L8.57077 45.9908C8.74866 45.7303 8.85377 45.4148 8.85377 45.0748C8.85579 44.8245 8.79717 44.5863 8.69408 44.3747ZM28.6859 22.4469C28.975 22.4326 29.2196 22.2657 29.351 22.0235C31.0874 22.6585 33.788 23.6396 35.4658 24.2482C35.4253 24.3907 35.4011 24.5413 35.4011 24.696C35.4011 25.0563 35.5203 25.3901 35.7205 25.6588L28.3281 31.9788C28.225 31.8832 28.0977 31.8139 27.9562 31.7834L28.6859 22.4469ZM37.9198 17.7145C38.2573 17.7145 38.5585 17.5557 38.7546 17.3094L46.058 21.6612C45.9933 21.7996 45.9569 21.9543 45.9569 22.1171C45.9569 22.1721 45.963 22.227 45.9711 22.282L38.5343 24.1973C38.3523 23.6376 37.8773 23.2142 37.2931 23.1084L37.9056 17.7145C37.9076 17.7145 37.9137 17.7145 37.9198 17.7145ZM58.704 11.7119C58.7282 11.8422 58.7889 11.9582 58.8738 12.0539L55.1503 16.4057C55.025 16.3222 54.8734 16.2713 54.7097 16.2713C54.5318 16.2713 54.366 16.3324 54.2326 16.4321L50.7174 12.7622C50.871 12.5851 50.968 12.3551 50.9801 12.1027L58.704 11.7119ZM64.4489 6.43404C64.6793 6.62537 64.9744 6.73936 65.2958 6.73936C65.5465 6.73936 65.781 6.66812 65.9831 6.54599L69.4721 11.4962C69.2881 11.657 69.1588 11.8809 69.1183 12.1333L60.1493 11.5186C60.1392 11.3679 60.0826 11.2316 59.9957 11.1196L64.4489 6.43404ZM77.4809 11.8076C77.5638 12.3755 77.9378 12.8477 78.4492 13.0635L77.3071 16.4097C77.2687 16.4016 77.2283 16.3975 77.1878 16.3975C76.9918 16.3975 76.8159 16.483 76.6926 16.6173L71.1115 12.8233C71.1923 12.6747 71.2368 12.5058 71.2408 12.3246L77.4809 11.8076ZM82.7467 19.0823L79.5327 26.0821C79.3872 26.0272 79.2295 25.9946 79.0657 25.9946C79.0193 25.9946 78.9728 25.9967 78.9283 26.0028L77.4102 17.7226C77.6043 17.6534 77.7579 17.5007 77.8246 17.3033L82.2475 18.1134C82.2454 18.1399 82.2434 18.1663 82.2434 18.1948C82.2434 18.5714 82.4456 18.9011 82.7467 19.0823ZM91.7138 27.6698C91.732 27.8184 91.7926 27.9507 91.8856 28.0586L87.5739 33.0332C87.4567 32.9518 87.3131 32.9029 87.1595 32.9029C86.9614 32.9029 86.7815 32.9823 86.6501 33.1126L80.1836 28.0769C80.3029 27.8957 80.3776 27.684 80.3979 27.4561L91.7138 27.6698ZM97.0321 33.08C97.0766 33.3527 97.2242 33.5929 97.4324 33.7558L95.0673 37.5396C94.9885 37.5071 94.9036 37.4888 94.8126 37.4888C94.6084 37.4888 94.4285 37.5783 94.3012 37.7208L87.8367 33.9206C87.865 33.8514 87.8791 33.7761 87.8852 33.6988L97.0321 33.08ZM90.8001 46.8029L86.3853 52.0137C86.2681 51.9322 86.1266 51.8854 85.9729 51.8854C85.8779 51.8854 85.787 51.9058 85.7041 51.9384L82.2414 46.3266C82.3505 46.2289 82.4274 46.0966 82.4516 45.944L90.3736 45.9481C90.4079 46.2859 90.5656 46.5851 90.8001 46.8029ZM67.9682 55.3111C67.9682 55.1279 67.9035 54.959 67.8004 54.8246L73.6544 48.934C73.7898 49.0399 73.9576 49.105 74.1416 49.105C74.182 49.105 74.2224 49.0989 74.2629 49.0928L75.9204 54.9732C75.3908 55.1625 74.9885 55.6225 74.8814 56.1904L67.9682 55.3111ZM63.3108 60.5462C63.1208 60.5462 62.9449 60.5992 62.7933 60.6887L59.7551 56.5018C59.8582 56.396 59.9229 56.2555 59.933 56.0988L66.3834 55.4922C66.4238 55.6714 66.5249 55.826 66.6603 55.938L63.7596 60.6521C63.6241 60.5849 63.4725 60.5462 63.3108 60.5462ZM54.3155 60.9411C54.1801 60.8373 54.0123 60.7722 53.8303 60.7722C53.7232 60.7722 53.6201 60.7946 53.5271 60.8332L50.0644 54.7106C50.3616 54.5132 50.588 54.218 50.7032 53.872L58.6676 55.9868C58.6656 56.0092 58.6615 56.0296 58.6615 56.054C58.6615 56.1945 58.708 56.3227 58.7828 56.4285L54.3155 60.9411ZM43.6343 60.5035C43.2644 60.5035 42.9369 60.6948 42.7449 60.9838L34.073 56.3105C34.1013 56.2311 34.1215 56.1456 34.1215 56.056C34.1215 56.0499 34.1195 56.0418 34.1195 56.0357L47.6226 53.7336C47.7075 54.098 47.9157 54.4135 48.1987 54.6353L44.1498 60.6358C43.9941 60.5503 43.8203 60.5035 43.6343 60.5035ZM20.6589 52.6223C20.3981 52.6223 20.1697 52.7607 20.0403 52.9683L14.5885 50.5196C14.6108 50.4464 14.6249 50.369 14.6249 50.2896C14.6249 50.2347 14.6189 50.1797 14.6087 50.1288L21.9728 47.5886C22.1183 47.9387 22.3831 48.2257 22.7146 48.4008L20.8549 52.6528C20.7923 52.6345 20.7276 52.6223 20.6589 52.6223ZM23.22 38.8301C23.2948 39.0784 23.4969 39.2718 23.7537 39.3227L23.4363 45.3517C23.0603 45.3557 22.7146 45.4901 22.4438 45.7119L17.3235 40.1409C17.4266 40.0147 17.4913 39.8539 17.4913 39.6769L23.22 38.8301ZM59.0274 12.1923C59.1406 12.2656 59.276 12.3104 59.4216 12.3104C59.4418 12.3104 59.462 12.3063 59.4822 12.3043L61.162 19.6848C60.8063 19.7906 60.503 20.0186 60.2989 20.3178L55.4455 17.401C55.4879 17.3033 55.5122 17.1934 55.5122 17.0794C55.5122 16.8718 55.4313 16.6825 55.3019 16.54L59.0274 12.1923ZM69.1042 12.3409C69.1123 12.5953 69.2053 12.8274 69.3589 13.0085L62.6579 20.0003C62.3789 19.7601 62.0171 19.6156 61.6209 19.6156C61.534 19.6156 61.4471 19.6237 61.3642 19.6379L59.6844 12.2574C59.9128 12.1679 60.0866 11.9704 60.1372 11.7242L69.1042 12.3409ZM82.4496 45.7404C82.4152 45.5267 82.2737 45.3476 82.0837 45.2601L83.1814 41.1424C83.2097 41.1464 83.238 41.1505 83.2683 41.1505C83.4906 41.1505 83.6867 41.0487 83.8221 40.89L90.5211 45.1827C90.4322 45.3517 90.3796 45.5389 90.3695 45.7404H82.4496ZM85.3362 52.2661L74.9279 48.4578C74.938 48.4048 74.9441 48.3499 74.9441 48.2949C74.9441 48.2603 74.938 48.2277 74.934 48.1952L81.257 46.1353C81.3641 46.3429 81.5743 46.4854 81.823 46.4854C81.9099 46.4854 81.9928 46.4671 82.0676 46.4366L85.5262 52.0401C85.4474 52.1032 85.3827 52.1785 85.3362 52.2661ZM67.6528 54.6781C67.5174 54.5722 67.3496 54.5071 67.1656 54.5071C67.0706 54.5071 66.9797 54.5274 66.8948 54.558L64.2548 49.4144C64.4246 49.2923 64.5378 49.1009 64.558 48.8811L73.3532 48.4435C73.3775 48.5717 73.43 48.6898 73.5068 48.7895L67.6528 54.6781ZM59.9168 55.8932C59.8865 55.7731 59.8239 55.6673 59.7369 55.5859L63.5352 49.4877C63.6261 49.5284 63.7252 49.5528 63.8323 49.5528C63.9172 49.5528 63.9961 49.5365 64.0729 49.5101L66.7128 54.6536C66.5107 54.7941 66.3793 55.0261 66.3692 55.2887L59.9168 55.8932ZM25.0595 46.9352C25.0514 46.5546 24.9139 46.2066 24.6896 45.9338L31.9545 38.995C32.0981 39.1191 32.2739 39.2067 32.466 39.2413L31.8737 46.6381C31.5503 46.6605 31.2875 46.8966 31.2268 47.21L25.0595 46.9352ZM23.9619 39.3329C24.2974 39.3003 24.5622 39.0337 24.5966 38.6958L31.5988 38.3416C31.6271 38.5289 31.7019 38.7019 31.8131 38.8464L24.546 45.7852C24.3035 45.5572 23.9902 45.4066 23.6445 45.3659L23.9619 39.3329ZM28.5788 32.7034L39.7249 32.9945C39.737 33.0942 39.7653 33.1879 39.8078 33.2734L33.4827 37.503C33.2867 37.2608 32.9875 37.1061 32.654 37.1061C32.4215 37.1061 32.2072 37.1814 32.0314 37.3076L28.3888 33.1105C28.4878 32.9986 28.5545 32.8581 28.5788 32.7034ZM47.0263 23.1959C47.1556 23.1959 47.2789 23.1715 47.3941 23.1287L50.5334 29.7052C50.2241 29.8945 50.018 30.2345 50.018 30.6253C50.018 30.668 50.022 30.7087 50.026 30.7494L41.2794 32.6485C41.2308 32.4999 41.1399 32.3696 41.0206 32.274L46.5633 23.086C46.7028 23.1572 46.8605 23.1959 47.0263 23.1959ZM54.7097 17.8875C54.9664 17.8875 55.1928 17.7633 55.3383 17.574L60.1938 20.4928C60.0806 20.7147 60.0159 20.9651 60.0159 21.2297C60.0159 21.6021 60.1432 21.9461 60.3555 22.2209L51.815 29.8355C51.7139 29.7419 51.5947 29.6666 51.4633 29.6157L54.6046 17.8753C54.6389 17.8834 54.6733 17.8875 54.7097 17.8875ZM79.0657 28.6875C79.0799 28.6875 79.0961 28.6855 79.1102 28.6855L79.5893 33.3242C79.3993 33.3629 79.2295 33.4525 79.09 33.5766L69.8642 24.9932C69.8885 24.9566 69.9107 24.9179 69.9269 24.8751L77.7538 27.0653C77.7356 27.1548 77.7255 27.2464 77.7255 27.3401C77.7255 28.085 78.3259 28.6875 79.0657 28.6875ZM81.823 45.201C81.5784 45.201 81.3681 45.3415 81.261 45.545L71.2752 42.1764C71.3055 42.0624 71.3237 41.9443 71.3237 41.8202C71.3237 41.808 71.3217 41.7958 71.3217 41.7835L82.5588 40.5948C82.6154 40.8187 82.771 41.004 82.9792 41.0935L81.8836 45.2092C81.8634 45.2051 81.8432 45.201 81.823 45.201ZM73.3431 48.2339L64.5479 48.6715C64.5216 48.5371 64.4569 48.417 64.37 48.3193L69.177 42.8888C69.4013 43.0618 69.6823 43.1656 69.9855 43.1656C70.216 43.1656 70.4323 43.1066 70.6223 43.0028L73.6241 47.6822C73.4644 47.8186 73.3613 48.014 73.3431 48.2339ZM59.3003 55.4108C59.2013 55.4108 59.1103 55.4352 59.0274 55.4739L52.3749 46.3938C52.4578 46.3124 52.5225 46.2147 52.567 46.1048L63.1066 48.7386C63.1046 48.7631 63.0986 48.7875 63.0986 48.8119C63.0986 49.0378 63.2016 49.2373 63.3593 49.3717L59.5631 55.4658C59.4822 55.4312 59.3953 55.4108 59.3003 55.4108ZM49.1811 51.743C48.4918 51.743 47.9076 52.1806 47.6792 52.7953L41.2167 50.8351C41.2207 50.8005 41.2268 50.768 41.2268 50.7334C41.2268 50.6703 41.2167 50.6092 41.2005 50.5502L51.1338 46.2249C51.2106 46.3551 51.3238 46.461 51.4592 46.5302L49.6157 51.804C49.4762 51.7674 49.3307 51.743 49.1811 51.743ZM32.0799 46.6544L32.6701 39.2596C32.9855 39.2535 33.2685 39.111 33.4605 38.8871L40.1211 43.6439C39.9998 43.8475 39.929 44.0816 39.929 44.336C39.929 44.4418 39.9432 44.5456 39.9654 44.6454L32.5509 47.0329C32.4599 46.8457 32.2901 46.7032 32.0799 46.6544ZM60.4909 22.3797C60.6567 22.5466 60.8608 22.6748 61.0872 22.7542L58.7869 30.9652C58.7545 30.9611 58.7242 30.955 58.6898 30.955C58.3563 30.955 58.0773 31.1809 57.9884 31.4883L52.1546 30.668C52.1546 30.6537 52.1566 30.6375 52.1566 30.6232C52.1566 30.3871 52.0798 30.1693 51.9525 29.9902L60.4909 22.3797ZM78.9485 33.7293C78.8555 33.8535 78.7868 33.9959 78.7544 34.1547L69.1143 33.0393C69.1143 33.0332 69.1143 33.0271 69.1143 33.021C69.1143 32.5141 68.7666 32.0908 68.2976 31.9748L69.2497 25.3229C69.2497 25.3229 69.2497 25.3229 69.2518 25.3229C69.4317 25.3229 69.5954 25.2558 69.7227 25.1458L78.9485 33.7293ZM78.8939 34.9485L71.0528 41.008C70.8082 40.6824 70.4222 40.4727 69.9875 40.4727C69.9229 40.4727 69.8622 40.4788 69.7996 40.487L68.3785 34.0448C68.7363 33.9267 69.0132 33.6235 69.0921 33.2469L78.7322 34.3603C78.7322 34.3664 78.7322 34.3725 78.7322 34.3786C78.7302 34.5883 78.7908 34.7837 78.8939 34.9485ZM64.2124 48.187C64.1012 48.1178 63.9718 48.0771 63.8323 48.0771C63.705 48.0771 63.5877 48.1117 63.4826 48.1708L58.9385 42.0319C59.0456 41.926 59.1164 41.7876 59.1426 41.6329L68.6534 41.8894C68.6696 42.2252 68.807 42.5265 69.0233 42.7544L64.2124 48.187ZM40.7033 50.0474L41.2147 45.6794C41.2329 45.6794 41.249 45.6814 41.2672 45.6814C41.908 45.6814 42.4417 45.2275 42.5731 44.6209L51.0145 45.8015C51.0145 45.8035 51.0145 45.8056 51.0145 45.8096C51.0145 45.887 51.0287 45.9603 51.0489 46.0315L41.1156 50.3568C41.0247 50.2082 40.8791 50.0963 40.7033 50.0474ZM41.1278 33.426L45.6679 36.3957C45.5728 36.5565 45.5183 36.7438 45.5183 36.9433C45.5183 37.2649 45.6598 37.5519 45.8801 37.7493L41.9687 43.188C41.7685 43.0638 41.5361 42.9926 41.2854 42.9885L40.675 33.6947C40.8549 33.6601 41.0125 33.5624 41.1278 33.426ZM51.0873 31.704C51.5926 31.704 52.0131 31.3519 52.1263 30.8776L57.9561 31.6979C57.9561 31.7631 57.9682 31.8241 57.9823 31.8852L47.4912 36.3754C47.4285 36.2756 47.3517 36.1881 47.2628 36.1128L50.5455 31.5555C50.7052 31.6491 50.8892 31.704 51.0873 31.704ZM66.9777 32.9742C66.9777 32.9904 66.9756 33.0047 66.9756 33.021C66.9756 33.255 67.0504 33.4728 67.1778 33.6499L58.8131 40.8879C58.7323 40.835 58.6393 40.7984 58.5382 40.7821L58.7707 32.4246C59.0658 32.39 59.3064 32.1803 59.3892 31.8994L66.9777 32.9742ZM68.6554 41.6797L59.1447 41.4233C59.1265 41.2726 59.0658 41.1363 58.9708 41.0264L67.3152 33.8066C67.5073 33.9878 67.762 34.0998 68.047 34.0998C68.0915 34.0998 68.1339 34.0957 68.1764 34.0916L69.5974 40.5317C69.09 40.6864 68.712 41.1342 68.6554 41.6797ZM51.0489 45.6L42.6034 44.4194C42.6054 44.393 42.6074 44.3645 42.6074 44.338C42.6074 43.9269 42.4235 43.5584 42.1344 43.3122L46.0459 37.8755C46.2056 37.9691 46.3895 38.0241 46.5856 38.0241C46.7473 38.0241 46.9029 37.9854 47.0404 37.9203L51.3258 45.1807C51.1924 45.2845 51.0954 45.431 51.0489 45.6ZM47.5862 36.5606L58.0652 32.0765C58.1744 32.2556 58.3543 32.3839 58.5665 32.4205L58.3341 40.7801C58.0895 40.8106 57.8813 40.9612 57.7721 41.1729L47.6327 37.1753C47.6488 37.102 47.6569 37.0247 47.6569 36.9453C47.6569 36.8089 47.6307 36.6787 47.5862 36.5606ZM51.819 45.0036C51.7058 45.0036 51.5987 45.028 51.5017 45.0708L47.2183 37.8124C47.3699 37.7004 47.4912 37.5498 47.568 37.3727L57.7014 41.3683C57.6933 41.4131 57.6872 41.4599 57.6872 41.5088C57.6872 41.6044 57.7074 41.696 57.7398 41.7795L52.4255 45.2886C52.2779 45.1156 52.0636 45.0036 51.819 45.0036ZM52.5407 45.4616L57.8449 41.9586C57.9783 42.1316 58.1865 42.2456 58.421 42.2456C58.5483 42.2456 58.6656 42.211 58.7687 42.154L63.3148 48.2908C63.2461 48.3601 63.1895 48.4435 63.1531 48.5371L52.6155 45.9033C52.6195 45.8727 52.6236 45.8422 52.6236 45.8117C52.6236 45.6855 52.5912 45.5674 52.5407 45.4616ZM69.0476 25.2904L68.0935 31.9463C68.0773 31.9463 68.0611 31.9442 68.045 31.9442C67.5396 31.9442 67.1192 32.2964 67.006 32.7686L59.4216 31.6939C59.4216 31.5799 59.3933 31.474 59.3468 31.3763L68.708 25.0766C68.799 25.1764 68.9162 25.2497 69.0476 25.2904ZM50.3778 31.4313L47.0909 35.9947C46.9393 35.9133 46.7675 35.8665 46.5856 35.8665C46.2682 35.8665 45.9852 36.007 45.7891 36.2268L41.241 33.251C41.2915 33.1451 41.3218 33.0291 41.3218 32.9029C41.3218 32.8866 41.3178 32.8703 41.3178 32.8541L50.0685 30.953C50.1271 31.1402 50.2363 31.3051 50.3778 31.4313ZM40.4688 33.7069L41.0792 43.0048C40.7437 43.0537 40.4486 43.2246 40.2424 43.475L33.5818 38.7182C33.6728 38.5594 33.7233 38.3782 33.7233 38.1828C33.7233 37.9997 33.6768 37.8266 33.598 37.676L39.927 33.4443C40.0625 33.595 40.2545 33.6927 40.4688 33.7069ZM32.6176 47.2324L40.0321 44.8448C40.1999 45.258 40.5658 45.5695 41.0105 45.659L40.4991 50.023C40.2464 50.0311 40.0281 50.1736 39.9088 50.3812L32.6095 47.5072C32.6216 47.4563 32.6277 47.4034 32.6277 47.3484C32.6277 47.3077 32.6236 47.2711 32.6176 47.2324ZM82.5385 40.3852L71.3015 41.5739C71.2752 41.4355 71.2307 41.3032 71.166 41.181L79.0213 35.1134C79.2153 35.323 79.4943 35.4554 79.8015 35.4554C79.9592 35.4554 80.1108 35.4187 80.2463 35.3577L82.8195 39.8336C82.6538 39.9659 82.5466 40.1633 82.5385 40.3852ZM68.5948 24.9036L59.2336 31.2033C59.1649 31.126 59.082 31.0629 58.987 31.0201L61.2874 22.8112C61.3965 22.8336 61.5077 22.8478 61.6229 22.8478C62.2435 22.8478 62.7812 22.4916 63.048 21.9706L68.5503 24.3887C68.5341 24.4518 68.522 24.5149 68.522 24.5841C68.52 24.7001 68.5483 24.8059 68.5948 24.9036ZM32.5327 47.7006L39.832 50.5746C39.8199 50.6255 39.8118 50.6784 39.8118 50.7334C39.8118 50.8555 39.8442 50.9674 39.8987 51.0672L33.9093 55.535C33.7758 55.3986 33.5919 55.3152 33.3877 55.3152C33.3817 55.3152 33.3756 55.3172 33.3695 55.3172L32.1405 48.0222C32.3063 47.9672 32.4458 47.8512 32.5327 47.7006ZM34.0285 55.7039L40.018 51.2361C40.1453 51.3644 40.3232 51.4458 40.5193 51.4458C40.8023 51.4458 41.0449 51.2768 41.1581 51.0367L47.6185 52.9968C47.5923 53.1148 47.5761 53.237 47.5761 53.3611C47.5761 53.4181 47.5781 53.4731 47.5842 53.528L34.0811 55.8301C34.0669 55.7853 34.0508 55.7426 34.0285 55.7039ZM49.8118 51.8732L51.6533 46.6035C51.7079 46.6157 51.7624 46.6218 51.819 46.6218C51.9605 46.6218 52.0899 46.5811 52.2051 46.518L58.8536 55.594C58.797 55.649 58.7505 55.7141 58.7181 55.7874L50.7537 53.6726C50.774 53.5728 50.7841 53.469 50.7841 53.3611C50.7861 52.6935 50.3838 52.1195 49.8118 51.8732ZM74.1395 47.4889C74.0162 47.4889 73.901 47.5194 73.7959 47.5703L70.7961 42.8908C70.972 42.7565 71.1135 42.5794 71.2044 42.3738L81.1923 45.7445C81.1862 45.7771 81.1822 45.8117 81.1822 45.8463C81.1822 45.8788 81.1882 45.9114 81.1923 45.9419L74.8834 47.9957C74.7642 47.6985 74.4771 47.4889 74.1395 47.4889ZM83.2683 39.6748C83.1712 39.6748 83.0803 39.6952 82.9954 39.7298L80.4241 35.2559C80.695 35.0605 80.8709 34.7409 80.8709 34.3806V34.3786L86.45 33.8189C86.4904 33.9797 86.5814 34.1201 86.7087 34.2198L83.5432 39.7298C83.4583 39.6952 83.3653 39.6748 83.2683 39.6748ZM86.4298 33.6112L80.8507 34.171C80.7536 33.6764 80.321 33.3039 79.8015 33.3039C79.7995 33.3039 79.7975 33.3039 79.7955 33.3039L79.3184 28.6651C79.6095 28.6102 79.8662 28.4575 80.0583 28.2438L86.5268 33.2795C86.4682 33.3792 86.4338 33.4912 86.4298 33.6112ZM77.8145 26.8678L69.9774 24.6757C69.9815 24.6451 69.9855 24.6166 69.9855 24.5861C69.9855 24.4273 69.935 24.2828 69.8501 24.1627L76.7694 17.6168C76.8846 17.7063 77.0282 17.7633 77.1838 17.7633C77.1899 17.7633 77.1959 17.7613 77.204 17.7613L78.7221 26.0414C78.3037 26.1514 77.9661 26.4628 77.8145 26.8678ZM76.6279 17.4661L69.7086 24.0121C69.6277 23.947 69.5327 23.8981 69.4276 23.8717L70.1958 13.3871C70.5172 13.379 70.8042 13.2304 70.9962 12.9963L76.5754 16.7904C76.5329 16.8779 76.5086 16.9756 76.5086 17.0794C76.5107 17.2239 76.5531 17.3562 76.6279 17.4661ZM69.9916 13.3708L69.2235 23.8513C68.9728 23.8615 68.7565 23.9979 68.6332 24.1994L63.1309 21.7813C63.1915 21.6103 63.2279 21.4251 63.2279 21.2317C63.2279 20.8124 63.0682 20.4318 62.8075 20.1448L69.5085 13.151C69.6459 13.2629 69.8097 13.3383 69.9916 13.3708ZM54.4024 17.8264L51.2631 29.5648C51.2065 29.5546 51.1459 29.5485 51.0873 29.5485C50.9579 29.5485 50.8346 29.5729 50.7194 29.6157L47.5801 23.0392C47.8894 22.8499 48.0956 22.5079 48.0956 22.1191C48.0956 21.94 48.0511 21.7711 47.9743 21.6205L54.1012 17.6025C54.1841 17.6982 54.2852 17.7776 54.4024 17.8264ZM46.3855 22.9801L40.8427 32.1661C40.7437 32.1213 40.6345 32.0969 40.5193 32.0969C40.4425 32.0969 40.3697 32.1111 40.301 32.1315L37.7358 26.1391C38.2553 25.8705 38.6131 25.327 38.6131 24.7001C38.6131 24.5983 38.603 24.4986 38.5848 24.4009L46.0236 22.4855C46.0924 22.683 46.2197 22.8539 46.3855 22.9801ZM37.0061 26.3142C37.1961 26.3142 37.376 26.2796 37.5438 26.2185L40.109 32.2109C39.9068 32.333 39.7633 32.5406 39.7269 32.7849L28.5828 32.4938C28.5687 32.3635 28.5282 32.2434 28.4615 32.1396L35.8518 25.8216C36.145 26.1249 36.5533 26.3142 37.0061 26.3142ZM27.7884 33.3853C27.9542 33.3853 28.1058 33.3344 28.2331 33.2489L31.8737 37.444C31.7039 37.6251 31.5968 37.8653 31.5846 38.132L24.5865 38.4861C24.5562 38.3294 24.4733 38.1951 24.3581 38.0933L27.4427 33.3039C27.5499 33.3548 27.6651 33.3853 27.7884 33.3853ZM16.7595 40.4137C16.9132 40.4137 17.0567 40.3648 17.1739 40.2834L22.2942 45.8565C22.0213 46.1455 21.8515 46.5363 21.8515 46.9678C21.8515 47.1144 21.8717 47.2568 21.9101 47.3912L14.542 49.9314C14.4571 49.7584 14.3156 49.62 14.1398 49.5447L16.6686 40.4015C16.6969 40.4076 16.7272 40.4137 16.7595 40.4137ZM25.0494 47.1449L31.2208 47.4217C31.2572 47.7799 31.5543 48.0608 31.9202 48.0608C31.9263 48.0608 31.9303 48.0588 31.9343 48.0588L33.1634 55.3538C33.0744 55.3823 32.9915 55.4291 32.9208 55.4882L24.7078 47.9753C24.8937 47.7413 25.017 47.4563 25.0494 47.1449ZM76.4541 54.8796C76.3389 54.8796 76.2256 54.8918 76.1165 54.9162L74.4609 49.0378C74.6328 48.9625 74.7722 48.8262 74.8571 48.6552L85.2594 52.4615C85.2472 52.5144 85.2412 52.5673 85.2412 52.6243C85.2412 52.6894 85.2513 52.7505 85.2675 52.8116L77.8994 55.7996C77.6406 55.2541 77.0908 54.8796 76.4541 54.8796ZM83.9353 40.717C83.9778 40.6233 84.0021 40.5216 84.0021 40.4137C84.0021 40.1796 83.8909 39.972 83.7211 39.8356L86.8866 34.3257C86.9715 34.3603 87.0625 34.3806 87.1595 34.3806C87.2141 34.3806 87.2687 34.3725 87.3192 34.3623L91.1619 44.5823C90.9517 44.6759 90.7698 44.8245 90.6323 45.0077L83.9353 40.717ZM91.7037 44.4663C91.5844 44.4663 91.4672 44.4846 91.358 44.5131L87.5133 34.285C87.5982 34.2382 87.673 34.1751 87.7316 34.0977L94.19 37.8938C94.1496 37.9813 94.1253 38.079 94.1253 38.1828C94.1253 38.4291 94.2547 38.6449 94.4467 38.7691L92.1019 44.5253C91.9765 44.4866 91.8431 44.4663 91.7037 44.4663ZM49.9149 13.1327C50.1615 13.1327 50.3879 13.0472 50.5678 12.9067L54.085 16.5787C53.9759 16.7171 53.9072 16.8901 53.9072 17.0794C53.9072 17.2056 53.9375 17.3216 53.988 17.4275L47.8611 21.4454C47.7459 21.3009 47.5943 21.1869 47.4204 21.1157L49.7208 13.1123C49.7855 13.1245 49.8482 13.1327 49.9149 13.1327ZM27.2709 33.1899L24.1862 37.9793C24.0973 37.9386 23.9982 37.9142 23.8931 37.9142C23.7476 37.9142 23.6122 37.9589 23.501 38.0343L17.8006 31.6837C17.9178 31.5555 18.0047 31.3967 18.0492 31.2216L26.9879 32.563C26.9879 32.5691 26.9859 32.5732 26.9859 32.5772C26.9859 32.8235 27.0991 33.0413 27.2709 33.1899ZM17.085 32.0297C17.2952 32.0155 17.4873 31.9401 17.6469 31.8221L23.3494 38.1747C23.2483 38.2968 23.1856 38.4536 23.1856 38.6245L17.459 39.4692C17.3821 39.2006 17.1598 38.997 16.8828 38.9482L17.085 32.0297ZM21.0449 52.7362L22.9047 48.4862C23.0765 48.5493 23.2624 48.586 23.4545 48.586C23.8871 48.586 24.2812 48.4109 24.5703 48.13L32.7813 55.6388C32.7469 55.6897 32.7227 55.7446 32.7005 55.8037L21.3866 53.4079C21.3866 53.3917 21.3906 53.3754 21.3906 53.3591C21.3926 53.0965 21.2532 52.8665 21.0449 52.7362ZM21.3441 53.6115L32.658 56.0072C32.658 56.0235 32.654 56.0377 32.654 56.054C32.654 56.1456 32.6722 56.2311 32.7025 56.3125L24.2408 61.0246C24.067 60.7762 23.7799 60.6114 23.4545 60.6114C23.3817 60.6114 23.311 60.6215 23.2422 60.6358L20.9904 54.0145C21.1541 53.931 21.2815 53.7865 21.3441 53.6115ZM24.3439 61.2037L32.8015 56.4937C32.9147 56.6463 33.0865 56.7522 33.2826 56.7807V60.7823C32.9228 60.8292 32.6398 61.1141 32.5933 61.4764H24.4066C24.3985 61.3808 24.3783 61.2892 24.3439 61.2037ZM33.4908 60.7823V56.7807C33.6889 56.7522 33.8587 56.6463 33.9739 56.4916L42.6479 61.167C42.6074 61.2647 42.5812 61.3685 42.571 61.4764H34.1822C34.1316 61.1141 33.8506 60.8292 33.4908 60.7823ZM44.3176 60.7518L48.3665 54.7513C48.605 54.8938 48.8819 54.9773 49.1811 54.9773C49.4338 54.9773 49.6703 54.9162 49.8825 54.8124L53.3472 60.9391C53.1795 61.0673 53.0662 61.2586 53.0359 61.4764H44.6976C44.6713 61.1854 44.5298 60.9289 44.3176 60.7518ZM54.4631 61.0877L58.9304 56.5751C59.0355 56.6504 59.1628 56.6952 59.3003 56.6952C59.4034 56.6952 59.5004 56.6687 59.5873 56.6239L62.6276 60.8129C62.4416 60.9798 62.3183 61.2139 62.292 61.4764H54.6227C54.6046 61.3299 54.548 61.1996 54.4631 61.0877ZM63.9354 60.762L66.8341 56.0499C66.9352 56.0968 67.0464 56.1232 67.1636 56.1232C67.3638 56.1232 67.5457 56.0459 67.6872 55.9237L73.5756 61.2139C73.525 61.2912 73.4927 61.3808 73.4785 61.4764H64.3316C64.3033 61.1854 64.1537 60.9309 63.9354 60.762ZM74.1395 60.9045C73.9778 60.9045 73.8323 60.9635 73.715 61.0612L67.8287 55.7711C67.8792 55.6958 67.9156 55.6103 67.9399 55.5187L74.8551 56.398C74.8531 56.4306 74.8511 56.4631 74.8511 56.4957C74.8511 57.1104 75.1927 57.6457 75.694 57.9185L74.3215 60.933C74.2629 60.9167 74.2042 60.9045 74.1395 60.9045ZM77.9782 55.9909L85.3483 53.0029C85.4656 53.1983 85.6677 53.3326 85.9062 53.355L85.9446 60.6134C85.7405 60.6439 85.5626 60.7559 85.4494 60.9207L77.9338 57.1287C78.0146 56.9354 78.0611 56.7216 78.0611 56.4998C78.0591 56.3186 78.0308 56.1497 77.9782 55.9909ZM92.2939 44.6047L94.6367 38.8525C94.6933 38.8688 94.752 38.879 94.8146 38.879C95.0653 38.879 95.2836 38.7426 95.4049 38.5411L99.6741 40.5887C99.5993 40.774 99.5589 40.9755 99.5589 41.1892C99.5589 41.4049 99.6013 41.6105 99.6782 41.7998L92.8599 45.1339C92.7245 44.9059 92.5284 44.7207 92.2939 44.6047ZM100.808 39.6117C100.357 39.7135 99.9793 40.0046 99.759 40.3994L95.4817 38.3457C95.4938 38.2928 95.5039 38.2398 95.5039 38.1828C95.5039 37.9651 95.4029 37.7737 95.2452 37.6455L97.6082 33.8657C97.7517 33.939 97.9155 33.9817 98.0873 33.9817C98.2551 33.9817 98.4128 33.941 98.5522 33.8738C99.6094 35.6223 100.384 37.558 100.808 39.6117ZM97.3515 32.1213C97.1534 32.3106 97.0261 32.5752 97.018 32.8703L87.8771 33.4891C87.8529 33.3711 87.7983 33.2652 87.7235 33.1757L92.0392 28.197C92.1544 28.2723 92.2899 28.3171 92.4374 28.3171C92.6578 28.3171 92.8518 28.2173 92.9873 28.0626C94.6529 29.1699 96.1285 30.5418 97.3515 32.1213ZM91.7158 27.4622L80.3979 27.2485C80.3898 27.1365 80.3696 27.0266 80.3352 26.9228L83.8949 25.4308C84.0344 25.673 84.2911 25.8359 84.5862 25.8359C84.9622 25.8359 85.2755 25.5733 85.3625 25.2212C87.6548 25.5102 89.8136 26.2368 91.7562 27.3116C91.738 27.3604 91.7239 27.4093 91.7158 27.4622ZM84.4447 24.234C84.0688 24.3011 83.7837 24.6309 83.7837 25.0278C83.7837 25.1011 83.7959 25.1703 83.8141 25.2395L80.2543 26.7315C80.1351 26.4953 79.9471 26.2999 79.7187 26.1697L82.9327 19.1698C83.0378 19.2064 83.149 19.2268 83.2663 19.2268C83.3431 19.2268 83.4179 19.2186 83.4906 19.2024C84.0182 20.8002 84.3457 22.4876 84.4447 24.234ZM82.2838 17.9078L77.863 17.0977C77.863 17.0916 77.865 17.0855 77.865 17.0794C77.865 16.8189 77.7175 16.5929 77.5032 16.4789L78.6473 13.1286C78.7827 13.1652 78.9242 13.1876 79.0698 13.1876C79.4316 13.1876 79.7631 13.0655 80.032 12.862C81.1236 14.2074 82.0433 15.6973 82.7589 17.2992C82.5284 17.4315 82.3566 17.6473 82.2838 17.9078ZM77.8266 10.5456C77.5982 10.8245 77.4628 11.1827 77.4628 11.5715C77.4628 11.5817 77.4648 11.5898 77.4648 11.6L71.2247 12.117C71.1741 11.83 71.0104 11.5837 70.782 11.4249L72.7023 7.96469C72.7953 8.00133 72.8943 8.02372 72.9995 8.02372C73.2744 8.02372 73.5169 7.88327 73.6625 7.67159C75.1705 8.45116 76.5693 9.42003 77.8266 10.5456ZM72.5224 7.86088L70.6 11.3211C70.4687 11.2621 70.3231 11.2295 70.1715 11.2295C69.9774 11.2295 69.7955 11.2825 69.6399 11.372L66.1509 6.42183C66.3975 6.21421 66.5673 5.91907 66.6158 5.58323C68.5806 5.77456 70.4666 6.26103 72.2273 6.99786C72.2091 7.06706 72.1949 7.13627 72.1949 7.21158C72.199 7.48026 72.3263 7.71433 72.5224 7.86088ZM63.9637 5.50995C63.99 5.80712 64.1133 6.07784 64.2993 6.28749L59.8461 10.9731C59.7268 10.8856 59.5793 10.8326 59.4196 10.8326C59.268 10.8326 59.1285 10.8794 59.0112 10.9588L56.4097 8.04611C56.531 7.90363 56.6058 7.72247 56.6058 7.523C56.6058 7.43548 56.5876 7.35406 56.5633 7.27671C58.8556 6.22643 61.3601 5.61172 63.9637 5.50995ZM55.1564 7.99115C55.3019 8.1947 55.5384 8.33107 55.8073 8.33107C55.9771 8.33107 56.1327 8.27815 56.2621 8.18859L58.8637 11.1033C58.7707 11.2153 58.7121 11.3537 58.6979 11.5064L50.9741 11.8992C50.9438 11.6957 50.8589 11.5104 50.7315 11.3598C52.0414 10.0327 53.5332 8.89692 55.1564 7.99115ZM49.3145 12.9475C49.3792 12.9922 49.4499 13.0268 49.5227 13.0574L47.2223 21.0607C47.1576 21.0485 47.093 21.0424 47.0263 21.0424C46.9494 21.0424 46.8726 21.0505 46.7999 21.0668L46.3066 19.5117C46.5795 19.3835 46.7695 19.1067 46.7695 18.7831C46.7695 18.4798 46.6018 18.2172 46.3551 18.0788C47.0909 16.196 48.0976 14.4761 49.3145 12.9475ZM45.967 19.5871C46.0155 19.5871 46.0641 19.581 46.1105 19.5728L46.6038 21.1279C46.4279 21.2052 46.2763 21.3274 46.1631 21.4821L38.8678 17.1344C38.9264 17.0204 38.9669 16.8962 38.981 16.7639C41.1843 16.7863 43.325 17.3684 45.2272 18.4615C45.1868 18.5592 45.1625 18.665 45.1625 18.779C45.1645 19.2268 45.5223 19.5871 45.967 19.5871ZM36.8868 16.9145C36.9899 17.3033 37.3032 17.6066 37.6974 17.6921L37.0869 23.086C37.0607 23.0839 37.0344 23.0819 37.0081 23.0819C36.3491 23.0819 35.7831 23.4829 35.5365 24.0548C33.8607 23.4463 31.1622 22.4672 29.4278 21.8321C29.4419 21.7711 29.452 21.71 29.452 21.6449C29.452 21.4352 29.3712 21.248 29.2418 21.1035C31.1884 18.9072 33.8668 17.3806 36.8868 16.9145ZM28.4797 22.4326L27.75 31.7732C27.6186 31.7794 27.4973 31.818 27.3882 31.8811L26.3633 30.5418C26.5088 30.3953 26.5978 30.1937 26.5978 29.9698C26.5978 29.5811 26.3249 29.2574 25.961 29.1801C26.0722 26.648 26.9071 24.3011 28.2594 22.3451C28.3281 22.3858 28.4009 22.4163 28.4797 22.4326ZM23.0502 29.862C23.691 29.862 24.3419 29.9067 24.9928 29.9882C25.0029 30.4258 25.3566 30.7799 25.7933 30.7799C25.9408 30.7799 26.0763 30.7372 26.1955 30.668L27.2204 32.0073C27.1254 32.103 27.0567 32.2251 27.0203 32.3574L18.0795 31.0161C18.0795 30.9957 18.0815 30.9774 18.0815 30.957C18.0815 30.8654 18.0694 30.7759 18.0472 30.6904C19.6219 30.1571 21.3017 29.862 23.0502 29.862ZM16.0945 31.5046C16.2603 31.7834 16.5453 31.9809 16.8788 32.0236L16.6767 38.9441C16.4179 38.9746 16.1996 39.1375 16.0945 39.3654L10.2304 37.5763C10.2384 37.5335 10.2445 37.4888 10.2445 37.444C10.2445 37.2221 10.1556 37.0226 10.012 36.8761C11.5342 34.5964 13.6324 32.736 16.0945 31.5046ZM9.21156 38.2154C9.28433 38.2378 9.36115 38.2541 9.43998 38.2541C9.76543 38.2541 10.0444 38.0587 10.1697 37.7778L16.0359 39.569C16.0298 39.6036 16.0258 39.6402 16.0258 39.6769C16.0258 39.7725 16.046 39.8641 16.0783 39.9476L8.59301 44.1935C8.35044 43.821 7.9603 43.5564 7.5075 43.4811C7.76625 41.6003 8.35448 39.8254 9.21156 38.2154ZM7.38824 46.6828C7.80667 46.6462 8.17659 46.4488 8.4414 46.1516L13.1351 49.8764C13.0624 49.9986 13.0199 50.137 13.0199 50.2896C13.0199 50.3405 13.026 50.3914 13.0361 50.4403L9.28433 51.6839C9.15496 51.4132 8.88207 51.2239 8.56269 51.2239C8.49598 51.2239 8.43129 51.2341 8.36863 51.2504C7.82689 49.8174 7.48931 48.2827 7.38824 46.6828ZM9.00133 52.7098C9.21965 52.5653 9.36519 52.3169 9.36519 52.034C9.36519 51.9831 9.35912 51.9322 9.34902 51.8834L13.1008 50.6397C13.2059 50.8575 13.402 51.0224 13.6425 51.0774L13.0866 56.9293C12.8016 56.9293 12.5449 57.0432 12.3528 57.2264C10.9864 55.938 9.84629 54.4114 9.00133 52.7098ZM14.0529 57.5358L20.0969 53.8272C20.2323 53.9921 20.4325 54.098 20.6589 54.098C20.7054 54.098 20.7518 54.0918 20.7963 54.0837L23.0482 60.703C22.7551 60.8414 22.5448 61.1243 22.5044 61.4622C19.3449 61.3523 16.4199 60.2979 14.0003 58.5719C14.1014 58.407 14.162 58.2136 14.162 58.006C14.16 57.8371 14.1216 57.6783 14.0529 57.5358ZM83.1146 61.4764H74.8026C74.7722 61.2851 74.6651 61.1202 74.5115 61.0185L75.882 58.006C76.0599 58.0752 76.2519 58.1139 76.4541 58.1139C77.0443 58.1139 77.5598 57.7923 77.8387 57.3119L85.3584 61.106C85.3342 61.1793 85.318 61.2566 85.318 61.338V61.34C84.5964 61.4296 83.8605 61.4764 83.1146 61.4764ZM86.1508 60.6093L86.1124 53.3448C86.3044 53.3082 86.4702 53.1942 86.5773 53.0395L93.8201 56.8316C93.7695 56.9557 93.7433 57.0921 93.7433 57.2346C93.7433 57.4625 93.814 57.6722 93.9333 57.8472C91.8391 59.4267 89.3972 60.5605 86.7431 61.108C86.6562 60.8434 86.4298 60.648 86.1508 60.6093ZM95.5585 56.4611C95.3644 56.2718 95.1037 56.1558 94.8126 56.1558C94.7499 56.1558 94.6893 56.1619 94.6307 56.1721L92.1565 47.0798C92.4314 46.98 92.6659 46.7928 92.8235 46.5505L98.6654 49.7421C98.5906 49.909 98.5482 50.0942 98.5482 50.2896C98.5482 50.8005 98.8312 51.2443 99.2476 51.4743C98.3056 53.3448 97.0544 55.0302 95.5585 56.4611ZM101.186 43.2776C101.186 45.2764 100.863 47.1998 100.27 48.9992C100.149 48.9625 100.02 48.9422 99.8864 48.9422C99.4154 48.9422 99.001 49.1885 98.7645 49.5589L92.9246 46.3694C93.0014 46.2004 93.0459 46.0112 93.0459 45.8137C93.0459 45.6407 93.0115 45.4738 92.9529 45.3211L99.7691 41.9871C100.046 42.4756 100.566 42.8053 101.164 42.8053C101.168 42.8053 101.174 42.8053 101.178 42.8053C101.18 42.9621 101.186 43.1188 101.186 43.2776Z" fill="url(#paint0_radial)"/>
<path d="M104.002 39.7725C104.002 38.8179 103.232 38.0424 102.284 38.0424C102.233 38.0424 102.181 38.0465 102.132 38.0505C101.685 35.8421 100.865 33.7334 99.7043 31.8078C99.9691 31.5961 100.139 31.2705 100.139 30.9041C100.139 30.267 99.6255 29.75 98.9928 29.75C98.7785 29.75 98.5804 29.809 98.4086 29.9128C98.0629 29.465 97.699 29.0315 97.313 28.6122C96.2153 27.4215 94.9883 26.3854 93.6643 25.5122C93.7047 25.4165 93.727 25.3127 93.727 25.2028C93.727 24.7672 93.3752 24.4131 92.9426 24.4131C92.696 24.4131 92.4797 24.5291 92.3362 24.7082C90.1976 23.5317 87.8466 22.7664 85.3947 22.4591C85.3886 22.0113 85.0429 21.6489 84.6083 21.6123C84.5032 19.7356 84.1596 17.9037 83.5916 16.1533C83.9655 15.9762 84.2243 15.5955 84.2243 15.1518C84.2243 14.5412 83.731 14.0466 83.1266 14.0466C83.0155 14.0466 82.9063 14.0629 82.8032 14.0954C82.0411 12.3755 81.0527 10.7553 79.8519 9.27347C80.1572 8.96205 80.3452 8.5346 80.3452 8.06238C80.3452 7.10776 79.575 6.33226 78.6249 6.33226C78.1843 6.33226 77.782 6.5012 77.4788 6.77598C76.0921 5.53029 74.5679 4.48611 72.9447 3.65565C72.969 3.57423 72.9872 3.48875 72.9872 3.39919C72.9872 2.92086 72.6011 2.53412 72.1281 2.53412C71.8208 2.53412 71.552 2.69899 71.4004 2.94325C69.4699 2.14332 67.4202 1.63242 65.3098 1.43295C65.3018 0.637093 64.663 0 63.8767 0C63.1186 0 62.498 0.594349 62.4495 1.34746C59.6297 1.45534 56.9169 2.12296 54.4386 3.25671C54.285 3.01856 54.0202 2.85776 53.717 2.85776C53.242 2.85776 52.8579 3.24653 52.8579 3.72282C52.8579 3.8307 52.8801 3.93451 52.9165 4.02814C51.1579 5.00922 49.5428 6.23863 48.1217 7.67565C47.9256 7.51892 47.677 7.42325 47.4081 7.42325C46.7754 7.42325 46.262 7.94025 46.262 8.57735C46.262 8.89488 46.3894 9.18391 46.5976 9.39152C45.2796 11.0443 44.19 12.9088 43.3916 14.9422C43.3229 14.9239 43.2541 14.9116 43.1814 14.9116C42.9064 14.9116 42.6639 15.0439 42.5062 15.2475C40.4363 14.0588 38.1056 13.4217 35.7082 13.3973C35.6637 12.8009 35.1705 12.3287 34.5661 12.3287C33.9334 12.3287 33.4199 12.8457 33.4199 13.4828C33.4199 13.5092 33.4219 13.5336 33.424 13.5601C30.1371 14.069 27.2243 15.7299 25.1018 18.1195C24.9663 18.032 24.8067 17.979 24.6348 17.979C24.1598 17.979 23.7757 18.3678 23.7757 18.8441C23.7757 19.0904 23.8788 19.3102 24.0426 19.469C22.5689 21.596 21.6613 24.1464 21.54 26.9024C21.154 26.9207 20.8386 27.1935 20.7497 27.5599C20.0442 27.4703 19.3387 27.4255 18.6454 27.4255C16.7473 27.4255 14.9219 27.7451 13.2138 28.3252C13.0299 27.9364 12.6357 27.6657 12.1809 27.6657C11.5482 27.6657 11.0347 28.1827 11.0347 28.8198C11.0347 28.9541 11.059 29.0844 11.1014 29.2045C8.43316 30.5377 6.15704 32.5528 4.50554 35.0238C4.37819 34.9485 4.23063 34.9017 4.07093 34.9017C3.5959 34.9017 3.21183 35.2884 3.21183 35.7668C3.21183 36.0782 3.37759 36.3489 3.62218 36.5016C2.69435 38.2459 2.05962 40.1715 1.77864 42.2089C1.76045 42.2089 1.74226 42.2069 1.72407 42.2069C0.77602 42.2069 0.00585938 42.9824 0.00585938 43.937C0.00585938 44.8672 0.737613 45.6244 1.65129 45.6631C1.76045 47.4034 2.12835 49.0724 2.71658 50.6357C2.45178 50.7842 2.27187 51.0631 2.27187 51.3888C2.27187 51.8671 2.65594 52.2538 3.13097 52.2538C3.22598 52.2538 3.31492 52.2355 3.40184 52.205C4.31957 54.0552 5.5587 55.7161 7.04646 57.1124C6.91305 57.3017 6.83421 57.5317 6.83421 57.7801C6.83421 58.4171 7.34766 58.9342 7.98036 58.9342C8.31187 58.9342 8.60902 58.7917 8.81925 58.5637C11.4471 60.4404 14.6248 61.5863 18.0571 61.7044C18.1056 62.2316 18.5423 62.6468 19.08 62.6468C19.6116 62.6468 20.0442 62.2397 20.1008 61.7186H28.8657C28.9202 62.144 29.278 62.4738 29.7147 62.4738C30.1513 62.4738 30.5071 62.144 30.5637 61.7186H39.5468C39.6034 62.3028 40.0926 62.7608 40.6869 62.7608C41.2812 62.7608 41.7724 62.3028 41.827 61.7186H50.7556C50.8102 62.144 51.168 62.4738 51.6046 62.4738C52.0412 62.4738 52.397 62.144 52.4536 61.7186H60.6646C60.7212 62.2763 61.1882 62.714 61.7582 62.714C62.3262 62.714 62.7952 62.2763 62.8518 61.7186H72.6476C72.7001 62.0647 72.9953 62.3313 73.3551 62.3313C73.7129 62.3313 74.008 62.0647 74.0626 61.7186H82.9649C83.7755 61.7186 84.574 61.6677 85.3603 61.57C85.4573 61.8977 85.7545 62.1379 86.1103 62.1379C86.5428 62.1379 86.8946 61.7838 86.8946 61.3482C86.8946 61.338 86.8925 61.3299 86.8925 61.3197C89.7731 60.7274 92.4231 59.4959 94.6932 57.778C94.8994 57.9816 95.1804 58.1057 95.4937 58.1057C96.1244 58.1057 96.6398 57.5887 96.6398 56.9516C96.6398 56.7074 96.563 56.4814 96.4357 56.2962C98.0609 54.7411 99.4233 52.9092 100.444 50.8738C100.594 50.9288 100.755 50.9593 100.925 50.9593C101.716 50.9593 102.356 50.312 102.356 49.5162C102.356 48.9442 102.023 48.4496 101.544 48.2176C102.189 46.2635 102.54 44.1772 102.54 42.0074C102.54 41.8324 102.532 41.6573 102.528 41.4823C103.355 41.3683 104.002 40.6477 104.002 39.7725ZM94.5234 56.3268L86.7591 52.262C86.7854 52.1846 86.8016 52.1032 86.8016 52.0157C86.8016 51.8244 86.7308 51.6513 86.6196 51.515L91.3579 45.9216C91.5843 46.0742 91.8592 46.1638 92.1523 46.1638C92.2453 46.1638 92.3342 46.1536 92.4231 46.1373L95.0732 55.8749C94.8488 55.9665 94.6548 56.1252 94.5234 56.3268ZM8.19463 56.6504L8.79095 50.3833C9.0881 50.3731 9.34482 50.2102 9.49238 49.9721L15.3302 52.5938C15.31 52.663 15.2959 52.7342 15.2959 52.8095C15.2959 52.9194 15.3181 53.0253 15.3606 53.1209L8.89202 57.09C8.72222 56.8661 8.47763 56.7053 8.19463 56.6504ZM3.26843 43.1859L11.2874 38.6367C11.3683 38.7405 11.4693 38.824 11.5906 38.8769L8.88191 48.6674C8.84148 48.6613 8.80308 48.6552 8.76063 48.6552C8.52614 48.6552 8.31592 48.7508 8.16027 48.9015L3.13502 44.9161C3.32705 44.6372 3.43823 44.2993 3.43823 43.935C3.44025 43.6663 3.37759 43.4139 3.26843 43.1859ZM24.6753 19.7051C24.9845 19.6888 25.2473 19.5117 25.3868 19.2532C27.2465 19.9351 30.1392 20.9854 31.9342 21.6367C31.8897 21.7894 31.8655 21.9502 31.8655 22.1171C31.8655 22.5038 31.9928 22.86 32.2071 23.1491L24.2912 29.9169C24.18 29.8151 24.0446 29.7398 23.893 29.7093L24.6753 19.7051ZM34.564 14.6389C34.9259 14.6389 35.2473 14.4699 35.4575 14.2053L43.2784 18.8645C43.2097 19.0131 43.1692 19.1779 43.1692 19.353C43.1692 19.412 43.1753 19.471 43.1834 19.5301L35.219 21.5797C35.0249 20.9813 34.5155 20.5274 33.8889 20.4134L34.5438 14.6369C34.5499 14.6389 34.556 14.6389 34.564 14.6389ZM56.8179 8.21097C56.8441 8.34938 56.9088 8.47354 56.9978 8.57735L53.0115 13.2365C52.8761 13.1469 52.7144 13.094 52.5405 13.094C52.3485 13.094 52.1726 13.1591 52.0311 13.267L48.2673 9.3386C48.433 9.14727 48.5361 8.90302 48.5482 8.63434L56.8179 8.21097ZM62.969 2.55855C63.2157 2.76209 63.533 2.88422 63.8767 2.88422C64.1455 2.88422 64.3962 2.80891 64.6124 2.67864L68.348 7.97893C68.1499 8.15194 68.0125 8.39009 67.968 8.6608L58.3642 8.00132C58.3521 7.84052 58.2935 7.69397 58.2005 7.57387L62.969 2.55855ZM76.9249 8.31274C77.0139 8.92134 77.4141 9.42613 77.9599 9.65613L76.7369 13.2405C76.6945 13.2324 76.6541 13.2283 76.6096 13.2283C76.3994 13.2283 76.2114 13.3199 76.08 13.4644L70.1046 9.4017C70.1895 9.24294 70.2401 9.06178 70.2421 8.86841L76.9249 8.31274ZM82.5647 16.1024L79.1222 23.5989C78.9666 23.5399 78.7968 23.5053 78.6209 23.5053C78.5704 23.5053 78.5218 23.5073 78.4733 23.5134L76.8481 14.647C77.0563 14.5738 77.22 14.4089 77.2928 14.1992L82.029 15.0663C82.027 15.0948 82.025 15.1233 82.025 15.1539C82.0229 15.5548 82.2412 15.909 82.5647 16.1024ZM92.1644 25.2985C92.1846 25.4573 92.2493 25.5997 92.3484 25.7158L87.7314 31.0425C87.6061 30.955 87.4525 30.9041 87.2887 30.9041C87.0765 30.9041 86.8845 30.9896 86.743 31.128L79.8196 25.7361C79.9469 25.5407 80.0278 25.3148 80.048 25.0705L92.1644 25.2985ZM97.8608 31.0914C97.9093 31.3845 98.0649 31.6409 98.2893 31.8139L95.7565 35.8665C95.6716 35.8319 95.5806 35.8136 95.4836 35.8136C95.2653 35.8136 95.0712 35.9113 94.9358 36.0619L88.0124 31.9931C88.0427 31.9198 88.0589 31.8384 88.065 31.7569L97.8608 31.0914ZM91.186 45.7872L86.46 51.3664C86.3346 51.2809 86.183 51.23 86.0193 51.23C85.9182 51.23 85.8212 51.2504 85.7302 51.287L82.0229 45.2784C82.1402 45.1746 82.2231 45.0321 82.2473 44.8693L90.7312 44.8733C90.7656 45.2316 90.9354 45.5532 91.186 45.7872ZM66.739 54.8979C66.739 54.7004 66.6703 54.5213 66.5591 54.3768L72.8275 48.069C72.973 48.1809 73.153 48.2522 73.349 48.2522C73.3935 48.2522 73.4359 48.246 73.4784 48.2399L75.2532 54.5376C74.6852 54.7411 74.2546 55.2337 74.1394 55.8403L66.739 54.8979ZM61.7521 60.5035C61.55 60.5035 61.36 60.5605 61.1983 60.6561L57.9438 56.1741C58.0529 56.0621 58.1237 55.9095 58.1358 55.7426L65.043 55.0933C65.0855 55.2846 65.1926 55.4495 65.3381 55.5696L62.2312 60.6175C62.0877 60.5462 61.924 60.5035 61.7521 60.5035ZM52.1201 60.9268C51.9745 60.8149 51.7966 60.7457 51.5985 60.7457C51.4833 60.7457 51.3742 60.7701 51.2731 60.8108L47.5658 54.2547C47.8832 54.043 48.1278 53.7275 48.2511 53.357L56.7795 55.6225C56.7774 55.6469 56.7714 55.6693 56.7714 55.6937C56.7714 55.8443 56.8199 55.9828 56.9007 56.0947L52.1201 60.9268ZM40.6809 60.4567C40.2847 60.4567 39.9329 60.6602 39.7288 60.9696L30.4424 55.9644C30.4747 55.879 30.4929 55.7874 30.4929 55.6917C30.4929 55.6835 30.4909 55.6774 30.4909 55.6693L44.9501 53.2044C45.0411 53.5932 45.2634 53.9331 45.5666 54.1712L41.2307 60.5971C41.067 60.5075 40.881 60.4567 40.6809 60.4567ZM16.0802 52.0177C15.8012 52.0177 15.5566 52.1663 15.4172 52.3882L9.5793 49.7665C9.60356 49.6871 9.61973 49.6057 9.61973 49.5202C9.61973 49.4612 9.61367 49.4042 9.60154 49.3472L17.4871 46.6279C17.6427 47.0024 17.9257 47.3097 18.2815 47.497L16.2904 52.0503C16.2217 52.032 16.153 52.0177 16.0802 52.0177ZM18.8233 37.2506C18.9041 37.5172 19.1204 37.7228 19.3953 37.7778L19.0557 44.2342C18.6535 44.2383 18.2835 44.3828 17.9925 44.6209L12.5083 38.653C12.6195 38.5166 12.6882 38.3457 12.6882 38.1564L18.8233 37.2506ZM57.1655 8.7239C57.2868 8.80328 57.4324 8.8501 57.588 8.8501C57.6103 8.8501 57.6305 8.84603 57.6527 8.84399L59.4518 16.7476C59.0717 16.8616 58.7463 17.1038 58.528 17.4254L53.3309 14.303C53.3754 14.1972 53.4017 14.0812 53.4017 13.9591C53.4017 13.7352 53.3147 13.5357 53.1773 13.381L57.1655 8.7239ZM67.9539 8.8847C67.9619 9.15745 68.063 9.40577 68.2268 9.59914L61.0507 17.0875C60.7515 16.8311 60.3634 16.6764 59.9409 16.6764C59.848 16.6764 59.755 16.6865 59.666 16.7008L57.867 8.79717C58.1116 8.70151 58.2975 8.48982 58.3521 8.22522L67.9539 8.8847ZM82.2453 44.6494C82.2069 44.4194 82.0593 44.2281 81.8531 44.1345L83.0276 39.7257C83.0579 39.7298 83.0882 39.7359 83.1206 39.7359C83.3591 39.7359 83.5693 39.626 83.7128 39.457L90.8869 44.053C90.7919 44.2322 90.7353 44.4357 90.7252 44.6494H82.2453ZM85.336 51.6371L74.1899 47.5601C74.2021 47.5031 74.2081 47.4461 74.2081 47.3851C74.2081 47.3484 74.2021 47.3138 74.198 47.2792L80.9698 45.0748C81.083 45.2967 81.3094 45.4494 81.5742 45.4494C81.6672 45.4494 81.7561 45.431 81.837 45.3964L85.5402 51.3969C85.4553 51.462 85.3866 51.5435 85.336 51.6371ZM66.4014 54.218C66.2559 54.1061 66.076 54.0348 65.8779 54.0348C65.7748 54.0348 65.6777 54.0552 65.5868 54.0898L62.7608 48.5819C62.9407 48.4516 63.062 48.246 63.0843 48.0099L72.5021 47.5398C72.5263 47.6782 72.5849 47.8023 72.6678 47.9102L66.4014 54.218ZM58.1156 55.5207C58.0833 55.3925 58.0145 55.2805 57.9216 55.191L61.9886 48.6613C62.0857 48.704 62.1928 48.7305 62.306 48.7305C62.397 48.7305 62.4819 48.7122 62.5627 48.6837L65.3887 54.1916C65.1724 54.3422 65.0309 54.5905 65.0208 54.8714L58.1156 55.5207ZM20.7901 45.9297C20.782 45.5226 20.6344 45.1481 20.3939 44.857L28.1743 37.4277C28.328 37.562 28.516 37.6557 28.7221 37.6923L28.0894 45.6122C27.7438 45.6346 27.4608 45.889 27.3961 46.2249L20.7901 45.9297ZM19.6157 37.7859C19.9755 37.7513 20.2605 37.4664 20.2948 37.104L27.7923 36.7255C27.8226 36.927 27.9035 37.1122 28.0207 37.2648L20.2403 44.6962C19.9795 44.454 19.646 44.2892 19.2761 44.2464L19.6157 37.7859ZM24.5621 30.6883L36.4985 31.0018C36.5107 31.1076 36.541 31.2094 36.5875 31.299L29.8137 35.8278C29.6035 35.5693 29.2841 35.4024 28.9263 35.4024C28.6777 35.4024 28.4472 35.4838 28.2613 35.6182L24.3599 31.1239C24.463 31.0038 24.5358 30.8532 24.5621 30.6883ZM44.3134 20.5071C44.4528 20.5071 44.5842 20.4806 44.7075 20.4358L48.0691 27.4784C47.7376 27.682 47.5173 28.0463 47.5173 28.4636C47.5173 28.5084 47.5213 28.5532 47.5254 28.5959L38.1602 30.6313C38.1076 30.4726 38.0106 30.3342 37.8832 30.2304L43.8181 20.391C43.9677 20.4664 44.1355 20.5071 44.3134 20.5071ZM52.5426 14.8241C52.8175 14.8241 53.058 14.6918 53.2157 14.4903L58.4128 17.6167C58.2915 17.8528 58.2227 18.1215 58.2227 18.4065C58.2227 18.8054 58.3582 19.1739 58.5846 19.467L49.4397 27.6209C49.3305 27.5192 49.2032 27.4398 49.0637 27.3869L52.4253 14.8139C52.4657 14.818 52.5021 14.8241 52.5426 14.8241ZM78.6209 26.3895C78.6371 26.3895 78.6532 26.3875 78.6694 26.3875L79.1808 31.3539C78.9787 31.3946 78.7968 31.4903 78.6472 31.6246L68.7685 22.4326C68.7948 22.3939 68.817 22.3512 68.8352 22.3064L77.218 24.6533C77.1978 24.7489 77.1877 24.8466 77.1877 24.9484C77.1877 25.7422 77.8305 26.3895 78.6209 26.3895ZM81.5742 44.0714C81.3114 44.0714 81.087 44.222 80.9718 44.4398L70.2805 40.8309C70.3129 40.7088 70.3331 40.5826 70.3331 40.4483C70.3331 40.434 70.331 40.4218 70.331 40.4096L82.3646 39.1354C82.4252 39.3756 82.591 39.573 82.8153 39.6687L81.6409 44.0754C81.6187 44.0754 81.5964 44.0714 81.5742 44.0714ZM72.496 47.3199L63.0782 47.7881C63.0499 47.6436 62.9812 47.5153 62.8862 47.4095L68.0327 41.5963C68.2732 41.7815 68.5744 41.8914 68.8999 41.8914C69.1465 41.8914 69.379 41.8283 69.5811 41.7184L72.7931 46.7296C72.6254 46.8742 72.5142 47.0818 72.496 47.3199ZM57.4566 55.0037C57.3515 55.0037 57.2525 55.0302 57.1635 55.0729L50.04 45.3496C50.129 45.2641 50.1997 45.1583 50.2442 45.0402L61.5298 47.8614C61.5278 47.8878 61.5217 47.9143 61.5217 47.9407C61.5217 48.1829 61.6309 48.3967 61.8007 48.5412L57.7356 55.0668C57.6527 55.0261 57.5577 55.0037 57.4566 55.0037ZM46.6218 51.0773C45.884 51.0773 45.2574 51.5475 45.0128 52.2029L38.0934 50.1044C38.0995 50.0678 38.1036 50.0332 38.1036 49.9945C38.1036 49.9253 38.0914 49.8622 38.0753 49.7991L48.712 45.1685C48.7948 45.3089 48.9161 45.4229 49.0617 45.4962L47.0867 51.1445C46.9372 51.1018 46.7835 51.0773 46.6218 51.0773ZM28.3098 45.6264L28.9425 37.7086C29.2801 37.7025 29.5833 37.5498 29.7895 37.3096L36.923 42.4043C36.7937 42.6201 36.7189 42.8745 36.7189 43.1452C36.7189 43.2592 36.733 43.3691 36.7593 43.477L28.8192 46.0335C28.7181 45.832 28.5342 45.6794 28.3098 45.6264ZM58.7321 19.6339C58.91 19.813 59.1283 19.9494 59.3709 20.0369L56.9068 28.83C56.8724 28.8259 56.8381 28.8198 56.8037 28.8198C56.4459 28.8198 56.1488 29.062 56.0538 29.3918L49.8076 28.5145C49.8076 28.4982 49.8096 28.4819 49.8096 28.4656C49.8096 28.2132 49.7267 27.9792 49.5893 27.7878L58.7321 19.6339ZM78.4976 31.7875C78.3985 31.9198 78.3258 32.0745 78.2894 32.2414L67.968 31.0486C67.968 31.0425 67.97 31.0344 67.97 31.0283C67.97 30.4868 67.5961 30.0309 67.0968 29.9088L68.1176 22.7868C68.1176 22.7868 68.1176 22.7868 68.1196 22.7868C68.3117 22.7868 68.4855 22.7135 68.6229 22.5975L78.4976 31.7875ZM78.4369 33.0942L70.04 39.5812C69.7772 39.2331 69.3648 39.0072 68.8999 39.0072C68.8312 39.0072 68.7645 39.0133 68.6977 39.0235L67.1756 32.1254C67.5597 31.9992 67.8548 31.6735 67.9397 31.2705L78.2611 32.4632C78.2611 32.4693 78.2591 32.4775 78.2591 32.4836C78.2631 32.7075 78.3278 32.9171 78.4369 33.0942ZM62.7164 47.269C62.5971 47.1958 62.4576 47.151 62.308 47.151C62.1726 47.151 62.0473 47.1897 61.9341 47.2507L57.0665 40.6783C57.1797 40.5643 57.2585 40.4157 57.2848 40.2508L67.4687 40.5256C67.4869 40.8839 67.6345 41.2075 67.8649 41.4517L62.7164 47.269ZM37.5436 49.2617L38.0914 44.5863C38.1096 44.5863 38.1298 44.5884 38.148 44.5884C38.8333 44.5884 39.4074 44.1019 39.5468 43.4546L48.5866 44.7186C48.5866 44.7207 48.5866 44.7247 48.5866 44.7268C48.5866 44.8102 48.6028 44.8876 48.623 44.9629L37.9863 49.5935C37.8873 49.4327 37.7316 49.3126 37.5436 49.2617ZM37.9964 31.4618L42.8579 34.6432C42.7569 34.8162 42.6962 35.0157 42.6962 35.2314C42.6962 35.5754 42.8478 35.8828 43.0843 36.0945L38.896 41.9179C38.6817 41.7856 38.433 41.7082 38.1642 41.7062L37.5133 31.7529C37.7074 31.7142 37.8731 31.6084 37.9964 31.4618ZM48.6614 29.6177C49.2011 29.6177 49.6539 29.2391 49.7752 28.7323L56.0194 29.6096C56.0194 29.6788 56.0315 29.7459 56.0477 29.809L44.8126 34.6167C44.7459 34.5109 44.6631 34.4152 44.5681 34.3358L48.0833 29.4569C48.2531 29.5587 48.4512 29.6177 48.6614 29.6177ZM65.6777 30.9794C65.6777 30.9957 65.6757 31.012 65.6757 31.0283C65.6757 31.2807 65.7566 31.5127 65.892 31.702L56.9371 39.4529C56.8502 39.396 56.7491 39.3573 56.644 39.339L56.8927 30.3891C57.21 30.3525 57.4667 30.1286 57.5537 29.8273L65.6777 30.9794ZM67.4748 40.2997L57.2909 40.0249C57.2727 39.8621 57.206 39.7176 57.1049 39.5995L66.0396 31.8669C66.2437 32.0602 66.5187 32.1803 66.8219 32.1803C66.8684 32.1803 66.9148 32.1762 66.9613 32.1701L68.4835 39.0662C67.9397 39.2372 67.5354 39.7176 67.4748 40.2997ZM48.621 44.4988L39.5772 43.2348C39.5792 43.2063 39.5812 43.1778 39.5812 43.1473C39.5812 42.7076 39.3851 42.3127 39.0759 42.0481L43.2642 36.2268C43.434 36.3265 43.6321 36.3855 43.8424 36.3855C44.0162 36.3855 44.182 36.3448 44.3295 36.2756L48.9181 44.051C48.7766 44.1609 48.6715 44.3176 48.621 44.4988ZM44.9117 34.8182L56.1326 30.0166C56.2478 30.208 56.4419 30.3464 56.6683 30.3851L56.4196 39.3369C56.1569 39.3695 55.9345 39.5303 55.8173 39.7583L44.9602 35.4777C44.9784 35.3983 44.9865 35.3169 44.9865 35.2314C44.9885 35.0849 44.9622 34.9465 44.9117 34.8182ZM49.4478 43.8597C49.3265 43.8597 49.2113 43.8861 49.1082 43.9309L44.5216 36.1596C44.6833 36.0395 44.8147 35.8767 44.8955 35.6894L55.7465 39.9679C55.7384 40.0168 55.7324 40.0656 55.7324 40.1165C55.7324 40.2183 55.7526 40.316 55.789 40.4055L50.0987 44.163C49.9369 43.9798 49.7065 43.8597 49.4478 43.8597ZM50.2179 44.3502L55.8981 40.5989C56.0416 40.7841 56.264 40.9062 56.5146 40.9062C56.6501 40.9062 56.7754 40.8676 56.8886 40.8065L61.7562 47.379C61.6814 47.4543 61.6228 47.5438 61.5823 47.6436L50.2968 44.8245C50.3008 44.7919 50.3069 44.7593 50.3069 44.7268C50.3069 44.5904 50.2725 44.4642 50.2179 44.3502ZM67.8952 22.7501L66.8744 29.8762C66.8562 29.8762 66.8401 29.8742 66.8219 29.8742C66.2821 29.8742 65.8293 30.2507 65.7081 30.7575L57.588 29.6055C57.588 29.4834 57.5577 29.3694 57.5092 29.2656L67.5334 22.5181C67.6304 22.628 67.7537 22.7074 67.8952 22.7501ZM47.9034 29.3266L44.3841 34.2137C44.2224 34.1262 44.0384 34.0773 43.8424 34.0773C43.5028 34.0773 43.1996 34.228 42.9893 34.4641L38.1197 31.2766C38.1743 31.1626 38.2066 31.0384 38.2066 30.9041C38.2066 30.8858 38.2026 30.8695 38.2006 30.8512L47.5699 28.8157C47.6345 29.0152 47.7518 29.1903 47.9034 29.3266ZM37.293 31.7631L37.9459 41.7184C37.5881 41.7693 37.2707 41.9545 37.0504 42.2211L29.9188 37.1285C30.0159 36.9595 30.0704 36.7641 30.0704 36.5565C30.0704 36.3611 30.0219 36.1759 29.935 36.0151L36.7128 31.4842C36.8584 31.645 37.0625 31.7488 37.293 31.7631ZM28.8839 46.2472L36.824 43.6907C37.0039 44.1345 37.3961 44.4662 37.8731 44.5619L37.3253 49.2353C37.0544 49.2434 36.82 49.3961 36.6926 49.6179L28.8758 46.5403C28.8879 46.4854 28.896 46.4284 28.896 46.3694C28.896 46.3266 28.8919 46.288 28.8839 46.2472ZM82.3403 38.9156L70.3068 40.1898C70.2805 40.0412 70.23 39.8987 70.1612 39.7705L78.5724 33.2733C78.7806 33.4993 79.0777 33.6397 79.4092 33.6397C79.579 33.6397 79.7387 33.6011 79.8843 33.5339L82.6395 38.3273C82.4636 38.4658 82.3504 38.6754 82.3403 38.9156ZM67.4101 22.3369L57.3839 29.0844C57.3111 29.001 57.2221 28.9338 57.119 28.889L59.5811 20.1C59.6964 20.1244 59.8176 20.1387 59.9409 20.1387C60.606 20.1387 61.1821 19.756 61.4671 19.2003L67.3596 21.7894C67.3414 21.8566 67.3272 21.9258 67.3272 21.999C67.3313 22.1171 67.3596 22.2331 67.4101 22.3369ZM28.7929 46.7459L36.6097 49.8235C36.5976 49.8785 36.5895 49.9355 36.5895 49.9945C36.5895 50.1248 36.6239 50.2449 36.6825 50.3527L30.2685 55.1381C30.127 54.9935 29.9289 54.9019 29.7106 54.9019C29.7046 54.9019 29.6965 54.904 29.6904 54.904L28.3745 47.092C28.5523 47.0329 28.7019 46.9088 28.7929 46.7459ZM30.3959 55.3172L36.8098 50.5318C36.9473 50.6703 37.1373 50.7557 37.3455 50.7557C37.6487 50.7557 37.9075 50.5746 38.0288 50.3161L44.9481 52.4146C44.9198 52.5408 44.9016 52.6711 44.9016 52.8054C44.9016 52.8665 44.9056 52.9255 44.9097 52.9846L30.4505 55.4495C30.4383 55.4047 30.4181 55.3599 30.3959 55.3172ZM47.2949 51.2158L49.2679 45.5715C49.3265 45.5837 49.3851 45.5898 49.4457 45.5898C49.5973 45.5898 49.7368 45.5471 49.8601 45.4778L56.9796 55.1971C56.9189 55.2561 56.8704 55.3274 56.834 55.4047L48.3057 53.1393C48.3259 53.0314 48.338 52.9194 48.338 52.8075C48.34 52.093 47.9095 51.4804 47.2949 51.2158ZM73.347 46.52C73.2156 46.52 73.0903 46.5526 72.9791 46.6055L69.7671 41.5942C69.9551 41.4497 70.1067 41.2604 70.2057 41.0406L80.901 44.6494C80.895 44.6861 80.8909 44.7207 80.8909 44.7593C80.8909 44.7939 80.897 44.8285 80.901 44.8611L74.1455 47.0614C74.0161 46.7459 73.7088 46.52 73.347 46.52ZM83.1226 38.1543C83.0195 38.1543 82.9204 38.1767 82.8295 38.2134L80.0763 33.4219C80.3654 33.2123 80.5554 32.8703 80.5554 32.4856V32.4836L86.5287 31.8852C86.5711 32.0582 86.6702 32.2068 86.8056 32.3147L83.4157 38.2154C83.3247 38.1747 83.2257 38.1543 83.1226 38.1543ZM86.5064 31.6592L80.5311 32.2577C80.428 31.7284 79.9631 31.3295 79.4072 31.3295C79.4052 31.3295 79.4012 31.3295 79.3991 31.3295L78.8877 26.361C79.199 26.302 79.476 26.1391 79.6801 25.9112L86.6075 31.3051C86.5489 31.4109 86.5125 31.531 86.5064 31.6592ZM77.2827 24.4395L68.8918 22.0906C68.8958 22.0581 68.9019 22.0275 68.9019 21.995C68.9019 21.826 68.8473 21.6693 68.7584 21.5411L76.1689 14.531C76.2922 14.6287 76.4458 14.6877 76.6136 14.6877C76.6217 14.6877 76.6278 14.6857 76.6338 14.6857L78.2591 23.5521C77.8063 23.6742 77.4444 24.006 77.2827 24.4395ZM76.0133 14.3722L68.6027 21.3803C68.5158 21.3111 68.4147 21.2581 68.3036 21.2296L69.1263 10.0022C69.4699 9.99401 69.7772 9.83321 69.9834 9.58489L75.9587 13.6476C75.9142 13.7413 75.8879 13.8471 75.8879 13.9591C75.8859 14.1117 75.9324 14.2542 76.0133 14.3722ZM68.9039 9.98587L68.0812 21.2073C67.8144 21.2195 67.5819 21.364 67.4485 21.5797L61.5561 18.9927C61.6228 18.8095 61.6592 18.6121 61.6592 18.4045C61.6592 17.9567 61.4873 17.5475 61.2104 17.2402L68.3864 9.7518C68.534 9.87189 68.7119 9.95331 68.9039 9.98587ZM52.2131 14.759L48.8514 27.3278C48.7908 27.3176 48.7261 27.3115 48.6614 27.3115C48.5219 27.3115 48.3906 27.338 48.2673 27.3828L44.9056 20.3402C45.2371 20.1366 45.4575 19.7723 45.4575 19.355C45.4575 19.1637 45.411 18.9825 45.3281 18.8217L51.8896 14.5188C51.9786 14.6226 52.0877 14.7061 52.2131 14.759ZM43.6281 20.2771L37.6932 30.1143C37.5861 30.0675 37.4688 30.039 37.3455 30.039C37.2647 30.039 37.1858 30.0533 37.111 30.0757L34.3639 23.6579C34.9198 23.3709 35.3019 22.7888 35.3019 22.1171C35.3019 22.0072 35.2897 21.9013 35.2715 21.7975L43.2359 19.7458C43.3148 19.9595 43.4502 20.1427 43.6281 20.2771ZM33.5857 23.8472C33.7878 23.8472 33.9819 23.8106 34.1618 23.7455L36.9089 30.1632C36.6926 30.2935 36.539 30.5153 36.5006 30.7779L24.5661 30.4644C24.552 30.326 24.5075 30.1958 24.4367 30.0838L32.3506 23.318C32.6619 23.6437 33.1005 23.8472 33.5857 23.8472ZM23.7151 31.4191C23.891 31.4191 24.0547 31.3641 24.1921 31.2725L28.0915 35.7647C27.9095 35.9581 27.7943 36.2166 27.7802 36.5016L20.2868 36.8801C20.2544 36.7132 20.1655 36.5687 20.0422 36.4588L23.3452 31.3295C23.4584 31.3865 23.5817 31.4191 23.7151 31.4191ZM11.9039 38.9441C12.0677 38.9441 12.2213 38.8932 12.3466 38.8057L17.8287 44.7736C17.5356 45.085 17.3537 45.5023 17.3537 45.9643C17.3537 46.1211 17.3759 46.2737 17.4163 46.4182L9.52674 49.1396C9.43578 48.9544 9.28417 48.8058 9.09416 48.7264L11.8029 38.9359C11.8372 38.938 11.8696 38.9441 11.9039 38.9441ZM20.782 46.1516L27.39 46.4467C27.4284 46.8294 27.7478 47.1306 28.14 47.1306C28.146 47.1306 28.1501 47.1286 28.1561 47.1286L29.4721 54.9406C29.3751 54.9711 29.2881 55.02 29.2133 55.0831L20.4182 47.039C20.6142 46.7907 20.7456 46.4854 20.782 46.1516ZM75.8253 54.4358C75.702 54.4358 75.5807 54.4501 75.4634 54.4745L73.6907 48.1789C73.8746 48.0975 74.0242 47.9509 74.1131 47.7698L85.2532 51.8447C85.241 51.8997 85.233 51.9587 85.233 52.0177C85.233 52.0869 85.2451 52.1541 85.2613 52.2172L77.3717 55.4169C77.0967 54.8368 76.5085 54.4358 75.8253 54.4358ZM83.8362 39.2698C83.8806 39.17 83.9069 39.0601 83.9069 38.9441C83.9069 38.6917 83.7876 38.4698 83.6057 38.3253L86.9956 32.4246C87.0866 32.4612 87.1836 32.4836 87.2887 32.4836C87.3474 32.4836 87.404 32.4755 87.4606 32.4632L91.5762 43.4078C91.3498 43.5096 91.1557 43.6663 91.0102 43.8637L83.8362 39.2698ZM92.1563 43.2836C92.0269 43.2836 91.9036 43.302 91.7844 43.3345L87.6667 32.3818C87.7577 32.3309 87.8365 32.2638 87.9012 32.1824L94.8165 36.2471C94.774 36.3408 94.7478 36.4466 94.7478 36.5565C94.7478 36.8211 94.8852 37.0532 95.0934 37.1834L92.5828 43.3488C92.4474 43.306 92.3039 43.2836 92.1563 43.2836ZM47.4061 9.73144C47.6709 9.73144 47.9115 9.63985 48.1055 9.48922L51.8714 13.4217C51.7542 13.5703 51.6814 13.7555 51.6814 13.9591C51.6814 14.0934 51.7138 14.2196 51.7684 14.3315L45.2068 18.6324C45.0835 18.4777 44.9218 18.3556 44.7358 18.2803L47.1999 9.71109C47.2687 9.72534 47.3374 9.73144 47.4061 9.73144ZM23.1612 31.2094L19.8582 36.3367C19.7632 36.2919 19.6561 36.2654 19.5449 36.2654C19.3893 36.2654 19.2457 36.3123 19.1244 36.3937L13.0198 29.5933C13.1451 29.4549 13.2381 29.2859 13.2866 29.0987L22.858 30.5357C22.858 30.5418 22.856 30.5459 22.856 30.552C22.856 30.8186 22.9753 31.0506 23.1612 31.2094ZM12.2536 29.9678C12.478 29.9535 12.6842 29.8721 12.856 29.7459L18.9627 36.5484C18.8556 36.6807 18.7869 36.8455 18.7869 37.0308L12.6539 37.9365C12.571 37.6495 12.3345 37.4318 12.0373 37.3788L12.2536 29.9678ZM16.4926 52.1398L18.4837 47.5886C18.6676 47.6558 18.8657 47.6944 19.0739 47.6944C19.5368 47.6944 19.9593 47.5072 20.2686 47.2059L29.0597 55.248C29.0233 55.3009 28.9971 55.362 28.9748 55.423L16.8605 52.8584C16.8625 52.8421 16.8665 52.8238 16.8665 52.8075C16.8645 52.5245 16.7149 52.2783 16.4926 52.1398ZM16.814 53.0782L28.9283 55.6428C28.9283 55.6591 28.9243 55.6754 28.9243 55.6917C28.9243 55.7894 28.9445 55.881 28.9768 55.9685L19.9168 61.0144C19.7309 60.7477 19.4236 60.5727 19.0739 60.5727C18.9951 60.5727 18.9203 60.5829 18.8475 60.5991L16.436 53.5097C16.6098 53.4181 16.7452 53.2654 16.814 53.0782ZM20.026 61.2077L29.084 56.1639C29.2053 56.3288 29.3892 56.4407 29.5994 56.4713V60.7559C29.2133 60.8068 28.9122 61.1121 28.8616 61.4988H20.0947C20.0846 61.397 20.0624 61.2973 20.026 61.2077ZM29.8198 60.7559V56.4713C30.032 56.4407 30.216 56.3268 30.3373 56.1619L39.6237 61.167C39.5812 61.2708 39.5529 61.3828 39.5408 61.4988H30.5576C30.5071 61.1121 30.2038 60.8068 29.8198 60.7559ZM41.4146 60.7233L45.7506 54.2974C46.0073 54.4501 46.3045 54.5376 46.6218 54.5376C46.8907 54.5376 47.1454 54.4725 47.3738 54.3605L51.0831 60.9207C50.9032 61.0571 50.7819 61.2627 50.7516 61.4968H41.823C41.7926 61.1874 41.639 60.9126 41.4146 60.7233ZM52.2777 61.0836L57.0604 56.2514C57.1716 56.3329 57.3091 56.3817 57.4566 56.3817C57.5678 56.3817 57.6709 56.3532 57.7639 56.3044L61.0184 60.7884C60.8203 60.9676 60.6869 61.2179 60.6586 61.4988H52.4476C52.4273 61.3441 52.3687 61.2016 52.2777 61.0836ZM62.4212 60.7335L65.5261 55.6876C65.6353 55.7365 65.7525 55.767 65.8799 55.767C66.0942 55.767 66.2902 55.6835 66.4398 55.5533L72.7466 61.2179C72.6921 61.3014 72.6577 61.397 72.6415 61.4988H62.8457C62.8134 61.1874 62.6537 60.9146 62.4212 60.7335ZM73.347 60.8861C73.1732 60.8861 73.0175 60.9513 72.8942 61.053L66.5894 55.3884C66.644 55.307 66.6824 55.2154 66.7087 55.1177L74.1131 56.0581C74.1111 56.0927 74.1071 56.1273 74.1071 56.1639C74.1071 56.8214 74.4729 57.3954 75.0106 57.6885L73.5411 60.9146C73.4804 60.8983 73.4157 60.8861 73.347 60.8861ZM77.4566 55.6245L85.3482 52.4248C85.4735 52.6345 85.6918 52.7769 85.9445 52.8014L85.9849 60.5727C85.7666 60.6052 85.5766 60.7253 85.4553 60.9004L77.406 56.8397C77.4929 56.6321 77.5415 56.4041 77.5415 56.166C77.5455 55.9767 77.5132 55.7955 77.4566 55.6245ZM92.787 43.4322L95.2956 37.273C95.3562 37.2893 95.4189 37.3015 95.4856 37.3015C95.7544 37.3015 95.9869 37.1549 96.1163 36.9392L100.687 39.1334C100.608 39.3329 100.563 39.5486 100.563 39.7745C100.563 40.0066 100.61 40.2264 100.691 40.4279L93.3914 43.9981C93.2479 43.7538 93.0377 43.5584 92.787 43.4322ZM101.904 38.0851C101.42 38.195 101.016 38.5065 100.782 38.9298L96.2012 36.7316C96.2153 36.6746 96.2234 36.6176 96.2234 36.5565C96.2234 36.3245 96.1143 36.1189 95.9465 35.9805L98.4773 31.934C98.6309 32.0114 98.8048 32.0582 98.9907 32.0582C99.1686 32.0582 99.3384 32.0154 99.488 31.9422C100.62 33.8148 101.449 35.8869 101.904 38.0851ZM98.2044 30.0655C97.9921 30.269 97.8567 30.552 97.8466 30.8695L88.0569 31.531C88.0306 31.4048 87.972 31.2908 87.8931 31.1952L92.5141 25.8623C92.6374 25.9437 92.783 25.9905 92.9406 25.9905C93.1751 25.9905 93.3853 25.8847 93.5289 25.7178C95.3138 26.9045 96.8945 28.3761 98.2044 30.0655ZM92.1684 25.0766L80.048 24.8487C80.0399 24.7286 80.0177 24.6105 79.9813 24.5006L83.7917 22.9028C83.9413 23.1613 84.2142 23.3363 84.5335 23.3363C84.9358 23.3363 85.2734 23.0554 85.3664 22.6789C87.8224 22.9883 90.1329 23.7658 92.2129 24.9179C92.1907 24.9667 92.1765 25.0196 92.1684 25.0766ZM84.3819 21.6184C83.9797 21.6897 83.6724 22.0418 83.6724 22.4692C83.6724 22.5486 83.6866 22.6219 83.7048 22.6952L79.8944 24.293C79.767 24.0406 79.5669 23.8309 79.3203 23.6905L82.7628 16.194C82.874 16.2326 82.9952 16.255 83.1206 16.255C83.2034 16.255 83.2823 16.2449 83.3591 16.2286C83.9251 17.9424 84.2748 19.7499 84.3819 21.6184ZM82.0674 14.8445L77.3332 13.9794C77.3332 13.9733 77.3353 13.9672 77.3353 13.9611C77.3353 13.6802 77.1756 13.44 76.9472 13.3179L78.1721 9.73144C78.3157 9.77012 78.4673 9.79454 78.6249 9.79454C79.011 9.79454 79.3688 9.66427 79.6559 9.44648C80.8242 10.8876 81.8087 12.4834 82.5748 14.1972C82.3302 14.3356 82.1462 14.5676 82.0674 14.8445ZM77.2948 6.96324C77.0502 7.26245 76.9047 7.64511 76.9047 8.06034C76.9047 8.07052 76.9067 8.0807 76.9067 8.09088L70.2259 8.64452C70.1714 8.3392 69.9975 8.07459 69.7529 7.90362L71.8107 4.19911C71.9098 4.23982 72.0169 4.26221 72.1301 4.26221C72.4252 4.26221 72.684 4.11159 72.8396 3.88362C74.4527 4.71815 75.9506 5.75623 77.2948 6.96324ZM71.6167 4.08716L69.5589 7.7937C69.4174 7.7306 69.2637 7.696 69.1 7.696C68.8918 7.696 68.6998 7.75299 68.532 7.84866L64.7964 2.54837C65.0612 2.32651 65.2431 2.01102 65.2957 1.65074C67.4 1.85632 69.4194 2.37739 71.3054 3.16511C71.2852 3.23839 71.271 3.3137 71.271 3.39308C71.269 3.68008 71.4064 3.93044 71.6167 4.08716ZM62.4516 1.56932C62.4799 1.88889 62.6112 2.17792 62.8114 2.40182L58.0449 7.41918C57.9155 7.32555 57.7598 7.27059 57.59 7.27059C57.4283 7.27059 57.2787 7.31944 57.1534 7.40493L54.3679 4.2846C54.4973 4.13194 54.5781 3.93858 54.5781 3.72486C54.5781 3.63123 54.5599 3.5437 54.5337 3.46025C56.9816 2.33872 59.664 1.67924 62.4516 1.56932ZM53.0196 4.22557C53.1753 4.4454 53.43 4.58992 53.717 4.58992C53.8969 4.58992 54.0647 4.53293 54.2042 4.43726L56.9897 7.55759C56.8906 7.67768 56.8259 7.82627 56.8118 7.9891L48.5401 8.41044C48.5078 8.19265 48.4168 7.99318 48.2814 7.83441C49.6843 6.41164 51.2812 5.19648 53.0196 4.22557ZM46.7653 9.534C46.8341 9.58082 46.9089 9.61949 46.9877 9.65206L44.5236 18.2213C44.4549 18.2091 44.3861 18.2009 44.3134 18.2009C44.2305 18.2009 44.1496 18.2111 44.0708 18.2274L43.5412 16.5603C43.8323 16.4219 44.0364 16.1248 44.0364 15.7787C44.0364 15.4531 43.8565 15.1722 43.5917 15.0256C44.3841 13.0126 45.4615 11.1705 46.7653 9.534ZM43.1793 16.6438C43.2319 16.6438 43.2824 16.6377 43.333 16.6275L43.8626 18.2925C43.6746 18.3739 43.5108 18.5062 43.3916 18.6731L35.5788 14.0201C35.6415 13.9 35.6839 13.7657 35.7001 13.6232C38.0591 13.6476 40.3514 14.2705 42.389 15.4409C42.3445 15.5447 42.3202 15.6607 42.3202 15.7808C42.3202 16.2571 42.7043 16.6438 43.1793 16.6438ZM33.4563 13.782C33.5655 14.1992 33.901 14.5229 34.3235 14.6145L33.6686 20.391C33.6403 20.389 33.612 20.387 33.5837 20.387C32.8782 20.387 32.2718 20.8165 32.007 21.4271C30.2119 20.7757 27.3233 19.7275 25.4656 19.0456C25.4818 18.9805 25.4919 18.9153 25.4919 18.8441C25.4919 18.6202 25.405 18.4187 25.2655 18.264C27.3557 15.9151 30.222 14.2807 33.4563 13.782ZM24.4529 19.6909L23.6706 29.693C23.5291 29.7012 23.3997 29.7419 23.2845 29.809L22.1869 28.374C22.3425 28.2173 22.4376 28.0016 22.4376 27.7614C22.4376 27.3441 22.1465 26.9981 21.7563 26.9146C21.8756 24.2034 22.7691 21.6917 24.2184 19.5972C24.2932 19.64 24.37 19.6725 24.4529 19.6909ZM18.6413 27.6474C19.3266 27.6474 20.024 27.6942 20.7214 27.7817C20.7315 28.2519 21.1115 28.6285 21.5784 28.6285C21.7361 28.6285 21.8817 28.5817 22.009 28.5084L23.1066 29.9434C23.0056 30.0451 22.9328 30.1754 22.8924 30.3179L13.3189 28.8809C13.3189 28.8605 13.323 28.8381 13.323 28.8178C13.323 28.718 13.3088 28.6244 13.2866 28.5328C14.9684 27.9608 16.7695 27.6474 18.6413 27.6474ZM11.1924 29.406C11.3683 29.7052 11.6755 29.9169 12.0333 29.9617L11.817 37.3727C11.5401 37.4053 11.3056 37.5783 11.1944 37.8246L4.91589 35.9072C4.92397 35.8604 4.93004 35.8136 4.93004 35.7647C4.93004 35.5266 4.83503 35.3129 4.6814 35.1561C6.30865 32.7156 8.55646 30.7229 11.1924 29.406ZM3.8223 36.5911C3.90113 36.6155 3.98199 36.6318 4.06689 36.6318C4.41458 36.6318 4.71375 36.4222 4.84918 36.1209L11.1297 38.0383C11.1237 38.077 11.1176 38.1136 11.1176 38.1543C11.1176 38.2561 11.1378 38.3538 11.1742 38.4434L3.15927 42.9905C2.90053 42.5916 2.4821 42.3087 1.99696 42.2293C2.27389 40.2162 2.90255 38.3151 3.8223 36.5911ZM1.86961 45.659C2.31634 45.6203 2.71456 45.4086 2.99756 45.0911L8.02483 49.0785C7.94802 49.2088 7.90152 49.3574 7.90152 49.5202C7.90152 49.5752 7.90759 49.6301 7.9177 49.6831L3.89911 51.0163C3.75964 50.7273 3.46855 50.5237 3.12693 50.5237C3.05416 50.5237 2.98543 50.5359 2.91873 50.5522C2.33858 49.0134 1.97876 47.3708 1.86961 45.659ZM3.59792 52.1114C3.83241 51.9567 3.98603 51.69 3.98603 51.3888C3.98603 51.3338 3.97997 51.2789 3.96986 51.2259L7.98844 49.8927C8.09962 50.1268 8.31187 50.3018 8.56859 50.3609L7.97429 56.626C7.66906 56.626 7.39415 56.7481 7.18796 56.9435C5.72243 55.5696 4.5015 53.9331 3.59792 52.1114ZM9.00522 57.2793L15.4758 53.3082C15.6193 53.4832 15.8356 53.5972 16.0782 53.5972C16.1287 53.5972 16.1772 53.5911 16.2257 53.583L18.6373 60.6704C18.324 60.819 18.0976 61.1222 18.0551 61.4825C14.6713 61.3645 11.5401 60.2368 8.94862 58.3866C9.05778 58.2095 9.12246 58.0019 9.12246 57.7801C9.12044 57.6009 9.07799 57.432 9.00522 57.2793ZM82.9568 61.4988H74.0545C74.0222 61.2953 73.9069 61.1182 73.7432 61.0083L75.2108 57.7821C75.4008 57.8554 75.6069 57.8981 75.8232 57.8981C76.4559 57.8981 77.0078 57.5521 77.3049 57.0392L85.3583 61.1019C85.332 61.1813 85.3138 61.2627 85.3138 61.3502V61.3523C84.5436 61.4479 83.7553 61.4988 82.9568 61.4988ZM86.2093 60.5706L86.1689 52.7912C86.3751 52.7505 86.5509 52.6304 86.6661 52.4635L94.4223 56.5242C94.3698 56.6565 94.3394 56.803 94.3394 56.9557C94.3394 57.2 94.4142 57.4239 94.5436 57.6111C92.3019 59.3026 89.6861 60.5177 86.844 61.1039C86.751 60.823 86.5085 60.6134 86.2093 60.5706ZM96.282 56.1293C96.0758 55.9278 95.7949 55.8016 95.4836 55.8016C95.4169 55.8016 95.3522 55.8077 95.2895 55.8199L92.6394 46.0824C92.9346 45.9765 93.1832 45.775 93.353 45.5165L99.6073 48.934C99.5284 49.1131 99.4819 49.3126 99.4819 49.5223C99.4819 50.0698 99.7851 50.5461 100.232 50.7904C99.2252 52.7912 97.883 54.5966 96.282 56.1293ZM102.31 42.0115C102.31 44.1507 101.964 46.2106 101.33 48.1382C101.198 48.0975 101.061 48.0771 100.917 48.0771C100.414 48.0771 99.9711 48.3397 99.7144 48.7366L93.4601 45.3211C93.543 45.14 93.5895 44.9385 93.5895 44.7268C93.5895 44.5395 93.5531 44.3624 93.4884 44.1996L100.788 40.6294C101.083 41.1525 101.641 41.5067 102.282 41.5067C102.288 41.5067 102.292 41.5067 102.296 41.5067C102.302 41.6736 102.31 41.8405 102.31 42.0115Z" fill="url(#paint1_radial)"/>
</g>
<defs>
<radialGradient id="paint0_radial" cx="0" cy="0" r="1" gradientUnits="userSpaceOnUse" gradientTransform="translate(56.6594 60.1527) scale(57.5858 57.9853)">
<stop stop-color="#ED1E79"/>
<stop offset="0.0523" stop-color="#D4217D"/>
<stop offset="0.146" stop-color="#AD2584"/>
<stop offset="0.2386" stop-color="#8E298A"/>
<stop offset="0.3287" stop-color="#782B8E"/>
<stop offset="0.4149" stop-color="#6A2C90"/>
<stop offset="0.4933" stop-color="#662D91"/>
<stop offset="0.6176" stop-color="#6263AD"/>
<stop offset="0.9017" stop-color="#59EAF4"/>
<stop offset="0.9446" stop-color="#58FFFF"/>
</radialGradient>
<radialGradient id="paint1_radial" cx="0" cy="0" r="1" gradientUnits="userSpaceOnUse" gradientTransform="translate(54.6292 60.0815) scale(61.6632 62.091)">
<stop stop-color="#ED1E79"/>
<stop offset="0.0523" stop-color="#D4217D"/>
<stop offset="0.146" stop-color="#AD2584"/>
<stop offset="0.2386" stop-color="#8E298A"/>
<stop offset="0.3287" stop-color="#782B8E"/>
<stop offset="0.4149" stop-color="#6A2C90"/>
<stop offset="0.4933" stop-color="#662D91"/>
<stop offset="0.6176" stop-color="#6263AD"/>
<stop offset="0.9017" stop-color="#59EAF4"/>
<stop offset="0.9446" stop-color="#58FFFF"/>
</radialGradient>
<clipPath id="clip0">
<rect width="104" height="85" fill="white"/>
</clipPath>
</defs>
</svg>
